<svg width="22" height="18" viewBox="0 0 22 18" fill="none" xmlns="http://www.w3.org/2000/svg">
<path fill-rule="evenodd" clip-rule="evenodd" d="M16.4329 0C17.908 0 19.327 0.53 20.3709 1.481C21.4159 2.43 22 3.71 22 5.05V12.95C22 15.74 19.503 18 16.4329 18H5.566C2.4959 18 0 15.74 0 12.95V5.05C0 2.26 2.4849 0 5.566 0H16.4329ZM18.183 6.53999L18.271 6.45999C18.5339 6.16999 18.5339 5.74999 18.2589 5.45999C18.106 5.31099 17.8959 5.21999 17.677 5.19999C17.446 5.18899 17.226 5.25999 17.0599 5.39999L12.1 8.99999C11.462 9.48099 10.5479 9.48099 9.89999 8.99999L4.94999 5.39999C4.60789 5.16999 4.13489 5.19999 3.84999 5.46999C3.55299 5.73999 3.51999 6.16999 3.77189 6.46999L3.91599 6.59999L8.92099 10.15C9.53699 10.59 10.2839 10.83 11.066 10.83C11.8459 10.83 12.606 10.59 13.2209 10.15L18.183 6.53999Z" fill="#5D9BFC"/>
</svg>
