<svg width="53" height="37" viewBox="0 0 53 37" fill="none" xmlns="http://www.w3.org/2000/svg">
<path d="M33.1334 1.88369C30.7497 0.421537 28.6692 1.01077 27.4194 1.94935C26.9069 2.33418 26.6507 2.5266 26.5 2.5266C26.3492 2.5266 26.093 2.33419 25.5806 1.94935L25.5805 1.94935C24.3307 1.01077 22.2503 0.421537 19.8666 1.88369C16.7383 3.80261 16.0304 10.1332 23.2462 15.4741C24.6206 16.4914 25.3078 17 26.5 17C27.6921 17 28.3793 16.4914 29.7537 15.4741C36.9696 10.1332 36.2617 3.80261 33.1334 1.88369Z" stroke="#AAAAAA" stroke-width="1.5" stroke-linecap="round"/>
<path d="M6.292 26.965V28.174H2.457V30.839H5.447V32.048H2.457V36H0.975V26.965H6.292ZM7.17143 32.386C7.17143 31.6667 7.31876 31.0297 7.61343 30.475C7.91676 29.9203 8.3241 29.4913 8.83543 29.188C9.35543 28.876 9.92743 28.72 10.5514 28.72C11.1148 28.72 11.6044 28.8327 12.0204 29.058C12.4451 29.2747 12.7831 29.5477 13.0344 29.877V28.837H14.5294V36H13.0344V34.934C12.7831 35.272 12.4408 35.5537 12.0074 35.779C11.5741 36.0043 11.0801 36.117 10.5254 36.117C9.9101 36.117 9.34676 35.961 8.83543 35.649C8.3241 35.3283 7.91676 34.8863 7.61343 34.323C7.31876 33.751 7.17143 33.1053 7.17143 32.386ZM13.0344 32.412C13.0344 31.918 12.9304 31.489 12.7224 31.125C12.5231 30.761 12.2588 30.4837 11.9294 30.293C11.6001 30.1023 11.2448 30.007 10.8634 30.007C10.4821 30.007 10.1268 30.1023 9.79743 30.293C9.4681 30.475 9.19943 30.748 8.99143 31.112C8.7921 31.4673 8.69243 31.892 8.69243 32.386C8.69243 32.88 8.7921 33.3133 8.99143 33.686C9.19943 34.0587 9.4681 34.3447 9.79743 34.544C10.1354 34.7347 10.4908 34.83 10.8634 34.83C11.2448 34.83 11.6001 34.7347 11.9294 34.544C12.2588 34.3533 12.5231 34.076 12.7224 33.712C12.9304 33.3393 13.0344 32.906 13.0344 32.412ZM19.245 34.674L21.273 28.837H22.846L20.116 36H18.348L15.631 28.837H17.217L19.245 34.674ZM27.0732 36.117C26.3972 36.117 25.7862 35.9653 25.2402 35.662C24.6942 35.35 24.2652 34.9167 23.9532 34.362C23.6412 33.7987 23.4852 33.1487 23.4852 32.412C23.4852 31.684 23.6455 31.0383 23.9662 30.475C24.2869 29.9117 24.7245 29.4783 25.2792 29.175C25.8339 28.8717 26.4535 28.72 27.1382 28.72C27.8229 28.72 28.4425 28.8717 28.9972 29.175C29.5519 29.4783 29.9895 29.9117 30.3102 30.475C30.6309 31.0383 30.7912 31.684 30.7912 32.412C30.7912 33.14 30.6265 33.7857 30.2972 34.349C29.9679 34.9123 29.5172 35.35 28.9452 35.662C28.3819 35.9653 27.7579 36.117 27.0732 36.117ZM27.0732 34.83C27.4545 34.83 27.8099 34.739 28.1392 34.557C28.4772 34.375 28.7502 34.102 28.9582 33.738C29.1662 33.374 29.2702 32.932 29.2702 32.412C29.2702 31.892 29.1705 31.4543 28.9712 31.099C28.7719 30.735 28.5075 30.462 28.1782 30.28C27.8489 30.098 27.4935 30.007 27.1122 30.007C26.7309 30.007 26.3755 30.098 26.0462 30.28C25.7255 30.462 25.4699 30.735 25.2792 31.099C25.0885 31.4543 24.9932 31.892 24.9932 32.412C24.9932 33.1833 25.1882 33.7813 25.5782 34.206C25.9769 34.622 26.4752 34.83 27.0732 34.83ZM33.7383 29.877C33.9549 29.513 34.2409 29.2313 34.5963 29.032C34.9603 28.824 35.3893 28.72 35.8833 28.72V30.254H35.5063C34.9256 30.254 34.4836 30.4013 34.1803 30.696C33.8856 30.9907 33.7383 31.502 33.7383 32.23V36H32.2563V28.837H33.7383V29.877ZM37.9995 27.888C37.7308 27.888 37.5055 27.797 37.3235 27.615C37.1415 27.433 37.0505 27.2077 37.0505 26.939C37.0505 26.6703 37.1415 26.445 37.3235 26.263C37.5055 26.081 37.7308 25.99 37.9995 25.99C38.2595 25.99 38.4805 26.081 38.6625 26.263C38.8445 26.445 38.9355 26.6703 38.9355 26.939C38.9355 27.2077 38.8445 27.433 38.6625 27.615C38.4805 27.797 38.2595 27.888 37.9995 27.888ZM38.7275 28.837V36H37.2455V28.837H38.7275ZM42.4022 30.046V34.011C42.4022 34.2797 42.4629 34.4747 42.5842 34.596C42.7142 34.7087 42.9309 34.765 43.2342 34.765H44.1442V36H42.9742C42.3069 36 41.7956 35.844 41.4402 35.532C41.0849 35.22 40.9072 34.713 40.9072 34.011V30.046H40.0622V28.837H40.9072V27.056H42.4022V28.837H44.1442V30.046H42.4022ZM52.0752 32.243C52.0752 32.5117 52.0578 32.7543 52.0232 32.971H46.5502C46.5935 33.543 46.8058 34.0023 47.1872 34.349C47.5685 34.6957 48.0365 34.869 48.5912 34.869C49.3885 34.869 49.9518 34.5353 50.2812 33.868H51.8802C51.6635 34.5267 51.2692 35.0683 50.6972 35.493C50.1338 35.909 49.4318 36.117 48.5912 36.117C47.9065 36.117 47.2912 35.9653 46.7452 35.662C46.2078 35.35 45.7832 34.9167 45.4712 34.362C45.1678 33.7987 45.0162 33.1487 45.0162 32.412C45.0162 31.6753 45.1635 31.0297 45.4582 30.475C45.7615 29.9117 46.1818 29.4783 46.7192 29.175C47.2652 28.8717 47.8892 28.72 48.5912 28.72C49.2672 28.72 49.8695 28.8673 50.3982 29.162C50.9268 29.4567 51.3385 29.8727 51.6332 30.41C51.9278 30.9387 52.0752 31.5497 52.0752 32.243ZM50.5282 31.775C50.5195 31.229 50.3245 30.7913 49.9432 30.462C49.5618 30.1327 49.0895 29.968 48.5262 29.968C48.0148 29.968 47.5772 30.1327 47.2132 30.462C46.8492 30.7827 46.6325 31.2203 46.5632 31.775H50.5282Z" fill="#AAAAAA"/>
</svg>
