<svg width="18" height="16" viewBox="0 0 18 16" fill="none" xmlns="http://www.w3.org/2000/svg">
<path d="M1.125 3.625H3.75" stroke="white" stroke-width="1.5" stroke-linecap="round" stroke-linejoin="round"/>
<path d="M1.125 12.375H6.375" stroke="white" stroke-width="1.5" stroke-linecap="round" stroke-linejoin="round"/>
<path d="M14.25 12.375L16.875 12.375" stroke="white" stroke-width="1.5" stroke-linecap="round" stroke-linejoin="round"/>
<path d="M11.625 3.625L16.875 3.625" stroke="white" stroke-width="1.5" stroke-linecap="round" stroke-linejoin="round"/>
<path d="M3.75 3.625C3.75 2.8096 3.75 2.4019 3.88321 2.0803C4.06083 1.6515 4.4015 1.31083 4.8303 1.13321C5.1519 1 5.5596 1 6.375 1C7.1904 1 7.5981 1 7.9197 1.13321C8.3485 1.31083 8.68917 1.6515 8.86679 2.0803C9 2.4019 9 2.8096 9 3.625C9 4.4404 9 4.8481 8.86679 5.1697C8.68917 5.5985 8.3485 5.93917 7.9197 6.11679C7.5981 6.25 7.1904 6.25 6.375 6.25C5.5596 6.25 5.1519 6.25 4.8303 6.11679C4.4015 5.93917 4.06083 5.5985 3.88321 5.1697C3.75 4.8481 3.75 4.4404 3.75 3.625Z" stroke="white" stroke-width="1.5"/>
<path d="M9 12.375C9 11.5596 9 11.1519 9.13321 10.8303C9.31083 10.4015 9.6515 10.0608 10.0803 9.88321C10.4019 9.75 10.8096 9.75 11.625 9.75C12.4404 9.75 12.8481 9.75 13.1697 9.88321C13.5985 10.0608 13.9392 10.4015 14.1168 10.8303C14.25 11.1519 14.25 11.5596 14.25 12.375C14.25 13.1904 14.25 13.5981 14.1168 13.9197C13.9392 14.3485 13.5985 14.6892 13.1697 14.8668C12.8481 15 12.4404 15 11.625 15C10.8096 15 10.4019 15 10.0803 14.8668C9.6515 14.6892 9.31083 14.3485 9.13321 13.9197C9 13.5981 9 13.1904 9 12.375Z" stroke="white" stroke-width="1.5"/>
</svg>
