<svg width="14" height="9" viewBox="0 0 14 9" fill="none" xmlns="http://www.w3.org/2000/svg">
<path d="M12.2506 0H3.50367C3.0206 0 2.62898 0.366129 2.62898 0.817765C2.62898 1.2694 3.0206 1.63553 3.50367 1.63553H12.2506C12.7337 1.63553 13.1253 1.2694 13.1253 0.817765C13.1253 0.366129 12.7337 0 12.2506 0ZM1.75429 0.817765C1.7533 0.601233 1.6605 0.393904 1.49625 0.241241C1.15509 -0.0758221 0.604092 -0.0758221 0.262934 0.241241C0.098662 0.393891 0.00586415 0.601228 0.00489961 0.817765C-0.0016332 0.870745 -0.0016332 0.92425 0.00489961 0.97723C0.0147919 1.03051 0.0309251 1.08262 0.0530078 1.1326C0.0764916 1.18104 0.104288 1.22754 0.136104 1.27163C0.167508 1.31747 0.20417 1.35997 0.24544 1.39838C0.285237 1.43544 0.329231 1.46835 0.376644 1.49651C0.42271 1.52787 0.472633 1.55395 0.525342 1.5742C0.583322 1.60232 0.645114 1.62295 0.709028 1.63553C0.765706 1.64146 0.822915 1.64146 0.879593 1.63553C1.11058 1.63571 1.33226 1.55045 1.49625 1.39838C1.53752 1.35997 1.57419 1.31747 1.60559 1.27163C1.6374 1.22754 1.6652 1.18104 1.68869 1.1326C1.7166 1.08323 1.7386 1.03112 1.75429 0.97723C1.76082 0.92425 1.76082 0.870745 1.75429 0.817765ZM1.75429 4.49771C1.76079 4.44473 1.76079 4.39123 1.75429 4.33824C1.73917 4.28548 1.71714 4.23467 1.68869 4.18696C1.66615 4.13679 1.63831 4.08885 1.60559 4.04385C1.57527 3.99851 1.53849 3.95724 1.49625 3.92119C1.15509 3.60412 0.604092 3.60412 0.262934 3.92119C0.098662 4.07383 0.00586415 4.28117 0.00489961 4.49771C0.00659854 4.60546 0.0288128 4.71208 0.0705016 4.81255C0.092425 4.86092 0.118763 4.90743 0.149224 4.95157C0.182493 4.99602 0.2206 5.03713 0.262934 5.07423C0.301576 5.11365 0.345705 5.14803 0.394138 5.17645C0.440188 5.20784 0.490113 5.23392 0.542836 5.25414C0.596174 5.27513 0.651948 5.29022 0.709028 5.29912C0.764981 5.31085 0.822246 5.31634 0.879593 5.31547C0.936257 5.32158 0.993495 5.32158 1.05016 5.31547C1.10582 5.30655 1.16014 5.29145 1.21198 5.2705C1.26613 5.2504 1.31752 5.22432 1.36505 5.19281C1.41348 5.16438 1.45761 5.13 1.49625 5.09059C1.53841 5.05446 1.57518 5.01321 1.60559 4.96792C1.63921 4.9249 1.66711 4.87822 1.68869 4.8289C1.71856 4.77462 1.74062 4.71687 1.75429 4.65717C1.76101 4.6042 1.76101 4.55068 1.75429 4.49771ZM1.75429 8.17765C1.76077 8.12467 1.76077 8.07117 1.75429 8.01819C1.73917 7.96412 1.71714 7.91196 1.68869 7.86281C1.6652 7.81438 1.6374 7.76788 1.60559 7.72379C1.57518 7.67851 1.53841 7.63726 1.49625 7.60113C1.15509 7.28407 0.604092 7.28407 0.262934 7.60113C0.220779 7.63726 0.184004 7.67851 0.153598 7.72379C0.121782 7.76788 0.0939855 7.81438 0.0705016 7.86281C0.0478143 7.9126 0.0316607 7.96477 0.0223935 8.01819C0.0100755 8.07055 0.00420604 8.12405 0.00489961 8.17765C0.00588807 8.39419 0.0986822 8.60151 0.262934 8.75418C0.301576 8.79359 0.345705 8.82797 0.394138 8.8564C0.440188 8.88778 0.490113 8.91387 0.542836 8.93409C0.596174 8.95507 0.651948 8.97017 0.709028 8.97906C0.764981 8.99079 0.822246 8.99629 0.879593 8.99542C0.936257 9.00153 0.993495 9.00153 1.05016 8.99542C1.10582 8.9865 1.16014 8.9714 1.21198 8.95044C1.26613 8.93035 1.31752 8.90427 1.36505 8.87275C1.41348 8.84433 1.45761 8.80995 1.49625 8.77053C1.53841 8.73441 1.57518 8.69315 1.60559 8.64787C1.63924 8.60486 1.66714 8.55818 1.68869 8.50885C1.71853 8.45455 1.74059 8.39681 1.75429 8.33712C1.76101 8.28415 1.76101 8.23062 1.75429 8.17765ZM13.1253 3.67994H3.50367C3.0206 3.67994 2.62898 4.04607 2.62898 4.49771C2.62898 4.94935 3.0206 5.31547 3.50367 5.31547H13.1253C13.6084 5.31547 14 4.94935 14 4.49771C14 4.04607 13.6084 3.67994 13.1253 3.67994ZM9.18918 7.35989H3.50367C3.0206 7.35989 2.62898 7.72602 2.62898 8.17765C2.62898 8.62929 3.0206 8.99542 3.50367 8.99542H9.18918C9.67226 8.99542 10.0639 8.62929 10.0639 8.17765C10.0639 7.72602 9.67226 7.35989 9.18918 7.35989Z" fill="#5D9BFC"/>
</svg>
