<svg width="11" height="11" viewBox="0 0 11 11" fill="none" xmlns="http://www.w3.org/2000/svg">
<path d="M0.571343 0.563325C-0.190448 1.31975 -0.190448 3.78216 0.571343 4.52249C1.14317 4.94023 1.84458 5.14172 2.55093 5.09115C3.25728 5.14172 3.95868 4.94023 4.53051 4.52249C5.2923 3.76607 5.2923 1.30366 4.53051 0.563325C3.76872 -0.177007 1.32777 -0.198466 0.571343 0.563325ZM0.571343 6.46453C-0.190448 7.22095 -0.190448 9.68336 0.571343 10.4237C1.14317 10.8414 1.84458 11.0429 2.55093 10.9924C3.25728 11.0429 3.95868 10.8414 4.53051 10.4237C5.2923 9.66727 5.2923 7.20486 4.53051 6.46453C3.76872 5.72419 1.32777 5.70273 0.571343 6.46453ZM8.45213 5.09115C9.15848 5.14172 9.85989 4.94023 10.4317 4.52249C11.1935 3.76607 11.1935 1.30366 10.4317 0.563325C9.66992 -0.177007 7.21288 -0.198466 6.47254 0.563325C5.73221 1.32512 5.71075 3.78216 6.47254 4.52249C7.04437 4.94023 7.74578 5.14172 8.45213 5.09115ZM6.47254 6.46453C5.71075 7.22095 5.71075 9.68336 6.47254 10.4237C7.04437 10.8414 7.74578 11.0429 8.45213 10.9924C9.15848 11.0429 9.85989 10.8414 10.4317 10.4237C11.1935 9.66727 11.1935 7.20486 10.4317 6.46453C9.66992 5.72419 7.22897 5.70273 6.47254 6.46453Z" fill="#AAAAAA"/>
</svg>
