<svg width="41" height="37" viewBox="0 0 41 37" fill="none" xmlns="http://www.w3.org/2000/svg">
<path fill-rule="evenodd" clip-rule="evenodd" d="M20.5005 11.8936C17.1384 11.8936 14.2673 12.4019 14.2673 14.4377C14.2673 16.4735 17.1202 17 20.5005 17C23.8625 17 26.7328 16.4908 26.7328 14.4559C26.7328 12.4209 23.8808 11.8936 20.5005 11.8936Z" stroke="#AAAAAA" stroke-width="1.5" stroke-linecap="round" stroke-linejoin="round"/>
<path fill-rule="evenodd" clip-rule="evenodd" d="M20.5005 8.98994C22.7069 8.98994 24.4951 7.20088 24.4951 4.99456C24.4951 2.78824 22.7069 1 20.5005 1C18.2942 1 16.5052 2.78824 16.5052 4.99456C16.4977 7.19343 18.2743 8.98249 20.4724 8.98994H20.5005Z" stroke="#AAAAAA" stroke-width="1.42857" stroke-linecap="round" stroke-linejoin="round"/>
<path d="M7.293 29.656C7.293 30.1153 7.18467 30.5487 6.968 30.956C6.75133 31.3633 6.40467 31.697 5.928 31.957C5.45133 32.2083 4.84033 32.334 4.095 32.334H2.457V36H0.975V26.965H4.095C4.78833 26.965 5.37333 27.0863 5.85 27.329C6.33533 27.563 6.695 27.8837 6.929 28.291C7.17167 28.6983 7.293 29.1533 7.293 29.656ZM4.095 31.125C4.65833 31.125 5.07867 30.9993 5.356 30.748C5.63333 30.488 5.772 30.124 5.772 29.656C5.772 28.668 5.213 28.174 4.095 28.174H2.457V31.125H4.095ZM10.1884 29.877C10.4051 29.513 10.6911 29.2313 11.0464 29.032C11.4104 28.824 11.8394 28.72 12.3334 28.72V30.254H11.9564C11.3758 30.254 10.9338 30.4013 10.6304 30.696C10.3358 30.9907 10.1884 31.502 10.1884 32.23V36H8.70645V28.837H10.1884V29.877ZM16.8027 36.117C16.1267 36.117 15.5157 35.9653 14.9697 35.662C14.4237 35.35 13.9947 34.9167 13.6827 34.362C13.3707 33.7987 13.2147 33.1487 13.2147 32.412C13.2147 31.684 13.375 31.0383 13.6957 30.475C14.0164 29.9117 14.454 29.4783 15.0087 29.175C15.5634 28.8717 16.183 28.72 16.8677 28.72C17.5524 28.72 18.172 28.8717 18.7267 29.175C19.2814 29.4783 19.719 29.9117 20.0397 30.475C20.3604 31.0383 20.5207 31.684 20.5207 32.412C20.5207 33.14 20.356 33.7857 20.0267 34.349C19.6974 34.9123 19.2467 35.35 18.6747 35.662C18.1114 35.9653 17.4874 36.117 16.8027 36.117ZM16.8027 34.83C17.184 34.83 17.5394 34.739 17.8687 34.557C18.2067 34.375 18.4797 34.102 18.6877 33.738C18.8957 33.374 18.9997 32.932 18.9997 32.412C18.9997 31.892 18.9 31.4543 18.7007 31.099C18.5014 30.735 18.237 30.462 17.9077 30.28C17.5784 30.098 17.223 30.007 16.8417 30.007C16.4604 30.007 16.105 30.098 15.7757 30.28C15.455 30.462 15.1994 30.735 15.0087 31.099C14.818 31.4543 14.7227 31.892 14.7227 32.412C14.7227 33.1833 14.9177 33.7813 15.3077 34.206C15.7064 34.622 16.2047 34.83 16.8027 34.83ZM24.9887 30.046H23.6627V36H22.1677V30.046H21.3227V28.837H22.1677V28.33C22.1677 27.5067 22.3844 26.9087 22.8177 26.536C23.2597 26.1547 23.9487 25.964 24.8847 25.964V27.199C24.4341 27.199 24.1177 27.2857 23.9357 27.459C23.7537 27.6237 23.6627 27.914 23.6627 28.33V28.837H24.9887V30.046ZM27.0561 27.888C26.7875 27.888 26.5621 27.797 26.3801 27.615C26.1981 27.433 26.1071 27.2077 26.1071 26.939C26.1071 26.6703 26.1981 26.445 26.3801 26.263C26.5621 26.081 26.7875 25.99 27.0561 25.99C27.3161 25.99 27.5371 26.081 27.7191 26.263C27.9011 26.445 27.9921 26.6703 27.9921 26.939C27.9921 27.2077 27.9011 27.433 27.7191 27.615C27.5371 27.797 27.3161 27.888 27.0561 27.888ZM27.7841 28.837V36H26.3021V28.837H27.7841ZM31.2119 26.38V36H29.7299V26.38H31.2119ZM39.7226 32.243C39.7226 32.5117 39.7053 32.7543 39.6706 32.971H34.1976C34.241 33.543 34.4533 34.0023 34.8346 34.349C35.216 34.6957 35.684 34.869 36.2386 34.869C37.036 34.869 37.5993 34.5353 37.9286 33.868H39.5276C39.311 34.5267 38.9166 35.0683 38.3446 35.493C37.7813 35.909 37.0793 36.117 36.2386 36.117C35.554 36.117 34.9386 35.9653 34.3926 35.662C33.8553 35.35 33.4306 34.9167 33.1186 34.362C32.8153 33.7987 32.6636 33.1487 32.6636 32.412C32.6636 31.6753 32.811 31.0297 33.1056 30.475C33.409 29.9117 33.8293 29.4783 34.3666 29.175C34.9126 28.8717 35.5366 28.72 36.2386 28.72C36.9146 28.72 37.517 28.8673 38.0456 29.162C38.5743 29.4567 38.986 29.8727 39.2806 30.41C39.5753 30.9387 39.7226 31.5497 39.7226 32.243ZM38.1756 31.775C38.167 31.229 37.972 30.7913 37.5906 30.462C37.2093 30.1327 36.737 29.968 36.1736 29.968C35.6623 29.968 35.2246 30.1327 34.8606 30.462C34.4966 30.7827 34.28 31.2203 34.2106 31.775H38.1756Z" fill="#AAAAAA"/>
</svg>
