<svg width="335" height="453" viewBox="0 0 335 453" fill="none" xmlns="http://www.w3.org/2000/svg">
<path fill-rule="evenodd" clip-rule="evenodd" d="M6.02125e-05 40C6.02125e-05 21.1438 6.02125e-05 11.7157 5.85792 5.85786C11.7158 0 21.1439 0 40.0001 0H295C313.856 0 323.284 0 329.142 5.85786C335 11.7157 335 21.1438 335 40V413C335 431.856 335 441.284 329.142 447.142C323.284 453 313.856 453 295 453H40.0001C21.1439 453 11.7158 453 5.85792 447.142C6.02125e-05 441.284 6.02125e-05 431.856 6.02125e-05 413L0 331.81C3.29065 331.81 6.44652 330.397 8.77336 327.884C11.1002 325.37 12.4074 321.96 12.4074 318.405C12.4074 314.85 11.1002 311.44 8.77336 308.926C6.44652 306.412 3.29065 305 3.45122e-06 305L0 212.81C3.29065 212.81 6.44652 211.397 8.77336 208.884C11.1002 206.37 12.4074 202.96 12.4074 199.405C12.4074 195.85 11.1002 192.44 8.77336 189.926C6.44652 187.412 3.29065 186 3.45122e-06 186L6.02125e-05 40ZM335 186C331.709 186 328.553 187.412 326.227 189.926C323.9 192.44 322.593 195.85 322.593 199.405C322.593 202.96 323.9 206.37 326.227 208.883C328.553 211.397 331.709 212.81 335 212.81V199.405V186ZM326.227 308.926C328.553 306.412 331.709 305 335 305V318.405V331.81C331.709 331.81 328.553 330.397 326.227 327.883C323.9 325.37 322.593 321.96 322.593 318.405C322.593 314.85 323.9 311.44 326.227 308.926ZM22.1561 199.405H18.6111V198.405H22.1561V199.405ZM36.336 199.405H29.2461V198.405H36.336V199.405ZM50.5159 199.405H43.426V198.405H50.5159V199.405ZM64.6958 199.405H57.6059V198.405H64.6958V199.405ZM78.8757 199.405H71.7857V198.405H78.8757V199.405ZM93.0556 199.405H85.9656V198.405H93.0556V199.405ZM107.235 199.405H100.146V198.405H107.235V199.405ZM121.415 199.405H114.325V198.405H121.415V199.405ZM135.595 199.405H128.505V198.405H135.595V199.405ZM149.775 199.405H142.685V198.405H149.775V199.405ZM163.955 199.405H156.865V198.405H163.955V199.405ZM178.135 199.405H171.045V198.405H178.135V199.405ZM192.315 199.405H185.225V198.405H192.315V199.405ZM206.495 199.405H199.405V198.405H206.495V199.405ZM220.675 199.405H213.585V198.405H220.675V199.405ZM234.855 199.405H227.765V198.405H234.855V199.405ZM249.035 199.405H241.945V198.405H249.035V199.405ZM263.214 199.405H256.124V198.405H263.214V199.405ZM277.394 199.405H270.304V198.405H277.394V199.405ZM291.574 199.405H284.484V198.405H291.574V199.405ZM305.754 199.405H298.664V198.405H305.754V199.405ZM316.389 199.405H312.844V198.405H316.389V199.405ZM18.6111 318.405H22.1561V317.405H18.6111V318.405ZM29.2461 318.405H36.336V317.405H29.2461V318.405ZM43.426 318.405H50.5159V317.405H43.426V318.405ZM57.6059 318.405H64.6958V317.405H57.6059V318.405ZM71.7857 318.405H78.8757V317.405H71.7857V318.405ZM85.9656 318.405H93.0556V317.405H85.9656V318.405ZM100.146 318.405H107.235V317.405H100.146V318.405ZM114.325 318.405H121.415V317.405H114.325V318.405ZM128.505 318.405H135.595V317.405H128.505V318.405ZM142.685 318.405H149.775V317.405H142.685V318.405ZM156.865 318.405H163.955V317.405H156.865V318.405ZM171.045 318.405H178.135V317.405H171.045V318.405ZM185.225 318.405H192.315V317.405H185.225V318.405ZM199.405 318.405H206.495V317.405H199.405V318.405ZM213.585 318.405H220.675V317.405H213.585V318.405ZM227.765 318.405H234.855V317.405H227.765V318.405ZM241.945 318.405H249.035V317.405H241.945V318.405ZM256.124 318.405H263.214V317.405H256.124V318.405ZM270.304 318.405H277.394V317.405H270.304V318.405ZM284.484 318.405H291.574V317.405H284.484V318.405ZM298.664 318.405H305.754V317.405H298.664V318.405ZM312.844 318.405H316.389V317.405H312.844V318.405Z" fill="#F8F8F8"/>
</svg>
