<svg width="19" height="14" viewBox="0 0 19 14" fill="none" xmlns="http://www.w3.org/2000/svg">
<path fill-rule="evenodd" clip-rule="evenodd" d="M12.9973 10.0328C13.0666 11.6032 11.7993 12.9311 10.1668 12.9978C10.0465 13.0029 4.18451 12.9911 4.18451 12.9911C2.55993 13.1144 1.13809 11.947 1.00994 10.3826C1.00029 10.266 1.00292 3.97616 1.00292 3.97616C0.930954 2.40413 2.19657 1.07285 3.82993 1.00358C3.95193 0.997667 9.80604 1.00865 9.80604 1.00865C11.4385 0.887008 12.8648 2.06286 12.9911 3.6349C12.9999 3.74809 12.9973 10.0328 12.9973 10.0328Z" stroke="#AAAAAA" stroke-width="1.5" stroke-linecap="round" stroke-linejoin="round"/>
<path d="M13 5.2685L15.8226 2.9585C16.522 2.38593 17.5711 2.88479 17.5703 3.78736L17.56 10.0865C17.5591 10.9891 16.5091 11.4836 15.8114 10.9111L13 8.60107" stroke="#AAAAAA" stroke-width="1.5" stroke-linecap="round" stroke-linejoin="round"/>
</svg>
