<svg width="258" height="300" viewBox="0 0 258 300" fill="none" xmlns="http://www.w3.org/2000/svg">
<path fill-rule="evenodd" clip-rule="evenodd" d="M50.9989 180.685C50.9989 180.685 53.534 164.379 54.6061 154.321C55.4661 146.253 56.7802 136.397 59.883 128.385C62.4553 121.739 66.245 116.523 72.1677 113.17C79.4008 109.079 90.2597 108.199 98.3956 106.223C102.939 105.118 108.385 103.035 108.385 103.035C108.385 103.035 108.249 102.578 109.091 101.537C110.021 100.38 112 98.5615 113.07 97.1743C114.634 95.1455 115.425 93.8048 116.858 92.4343C117.975 91.3651 119.043 91.0137 119.395 91.3093C126.399 97.1984 155.756 87.8506 160.225 87.8506C160.707 87.8506 161.528 88.7618 161.952 89.2843C162.633 90.1415 162.915 89.8254 163.853 91.2405C164.914 92.8416 166.659 95.5304 167.596 96.6462C168.124 97.2765 168.459 97.8195 168.878 98.0501C169.623 98.4555 170.885 100.161 170.868 100.752C170.836 101.97 170.779 102.351 172.219 102.829C176.686 104.317 180.796 105.358 186.492 106.693C191.83 107.945 197.498 109.265 202.663 110.487C205.701 111.203 209.518 113.047 212.014 114.981C214.132 116.623 216.109 117.979 218.131 121.303C219.921 124.243 220.923 126.869 221.786 128.959C223.581 133.331 224.392 135.914 226.708 143.629C228.64 150.048 232.431 158.036 236.213 164.619C238.717 168.98 242.261 174.661 245.334 179.348C249.684 185.98 252.965 192.618 254.64 198.926C256.597 206.293 256.632 213.01 256.098 217.127C255.869 218.895 255.51 224.323 253.12 226.03C249.769 228.421 240.533 227.586 235.739 226.822C229.455 225.822 223.212 221.987 218.056 218.281C213.589 215.064 209.747 211.855 209.747 211.855C209.747 211.855 208.807 232.84 208.575 254.41C208.47 264.254 208.096 272.529 208.182 280.454C208.284 289.893 208.859 298.12 208.859 298.12L76.4841 298.695C76.4841 298.695 77.0425 293.241 77.1728 288.142C77.3031 283.043 77.3068 272.178 77.3068 272.178L50.9989 180.685Z" fill="white"/>
<path fill-rule="evenodd" clip-rule="evenodd" d="M105.701 15.2753C109.796 9.98682 112.361 5.89214 117.314 4.52725C120.216 3.67373 124.143 1.79747 133.195 0.943952C140.709 0.261507 149.589 2.30884 152.152 4.35618C155.054 6.40165 158.295 4.69833 162.911 9.47545C167.527 14.2526 168.545 15.4464 172.303 22.2708C174.351 25.8541 175.719 27.3882 175.888 31.4829C175.888 35.5739 172.132 39.332 172.132 39.332C172.132 39.332 172.303 41.0371 169.911 48.373C168.462 52.8174 166.692 57.1514 164.618 61.3413L108.262 50.5876C108.262 50.5876 102.626 44.9589 100.406 40.0107C98.1853 35.0625 98.8702 33.0152 98.8702 33.0152H93.0629C95.0383 32.0993 96.7441 30.6903 98.0159 28.9242C101.089 24.4855 103.993 17.49 105.701 15.2753Z" fill="#E6ECF6"/>
<path fill-rule="evenodd" clip-rule="evenodd" d="M128.072 92.5571C128.072 92.5571 122.926 93.4868 118.999 89.5725C117.007 87.5829 114.407 84.8754 112.281 81.2809C110.578 78.4061 109.372 75.4495 108.465 72.9614C106.401 67.288 107.067 58.0852 106.896 55.7069C106.384 48.5403 104.752 44.3099 105.264 41.2398C105.435 40.5574 105.245 38.5249 107.125 34.4302C109.173 30.3393 111.577 28.8201 113.115 28.1376C119.434 25.0657 125.342 27.2078 127.049 28.9205C128.586 30.2854 131.83 34.38 135.075 36.0852C137.556 37.3512 140.2 38.2704 142.931 38.8169C142.931 38.8169 147.371 42.5694 150.957 46.8351C152.666 48.7114 155.052 57.5832 155.052 57.5832L159.493 52.1236C159.493 52.1236 161.403 51.1083 163.452 50.9372C167.892 50.7661 168.703 54.699 168.874 56.4042C169.558 65.1068 161.543 67.8198 161.543 67.8198C161.543 67.8198 153.178 79.0625 144.809 85.2473C136.441 91.4321 128.072 92.5571 128.072 92.5571Z" fill="#E6ECF6"/>
<path fill-rule="evenodd" clip-rule="evenodd" d="M116.549 98.3011L119.261 95.7926L118.84 89.1318L154.743 70.611L161.355 67.8998C161.355 67.8998 161.003 71.6579 160.785 72.9596C160.567 74.2612 160.521 77.9059 160.288 80.1652C160.055 82.4245 159.892 86.3314 160.337 88.6149C160.709 90.5097 161.174 90.0207 161.548 91.2461C161.922 92.4715 162.479 92.7653 162.127 94.0837C161.775 95.4021 160.316 100.518 157.915 102.706C155.514 104.895 148.608 110.753 148.608 110.753L145.883 108.186C145.883 108.186 143.067 106.684 141.788 106.327C140.51 105.97 138.209 105.737 136.962 105.938C135.715 106.139 133.984 106.682 133.158 107.147C132.331 107.612 129.091 110.174 129.091 110.174C128.086 109.149 126.933 108.281 125.669 107.599C124.335 106.896 123.622 106.232 122.038 105.075C120.454 103.919 118.388 101.942 117.627 101.265C116.865 100.588 116.549 98.3011 116.549 98.3011Z" fill="#E6ECF6"/>
<path fill-rule="evenodd" clip-rule="evenodd" d="M175.942 187.491C172.16 187.004 169.118 186.87 166.887 186.511C164.655 186.152 160.571 185.349 159.179 184.676C157.787 184.003 153.967 181.721 151.659 180.278C149.351 178.835 147.438 177.474 145.485 176.515C143.533 175.555 142.591 175.356 141.474 175.178C140.357 174.999 139.644 174.904 139.84 175.845C140.035 176.786 140.309 177.632 138.93 176.693C137.55 175.754 136.441 174.876 135.717 173.904C134.993 172.931 134.5 172.07 134.786 171.206C135.073 170.341 136.156 168.991 135.354 168.117C134.552 167.243 133.98 165.7 133.865 164.697C133.749 163.695 134.219 161.811 134.219 161.811C134.219 161.811 132.681 160.153 132.158 159.299C131.883 158.834 131.742 158.303 131.75 157.763C131.759 157.223 131.917 156.696 132.206 156.24C132.834 155.327 134.492 153.86 134.492 153.86C134.492 153.86 133.913 152.586 133.23 151.342C132.547 150.098 131.896 148.962 131.294 147.437C130.693 145.912 130.388 144.726 130.805 143.872C131.222 143.019 131.814 142.069 133.014 141.628C134.626 141.078 136.32 140.803 138.023 140.814C139.972 140.814 143.339 140.113 145.708 140.07C148.078 140.027 150.799 139.848 153.247 140.464C155.694 141.079 158.198 142.621 158.961 143.428C159.724 144.235 161.215 146.918 162.138 148.283C163.062 149.648 165.911 153.43 168.606 156.614C171.302 159.797 172.054 160.692 173.868 162.113C175.683 163.533 176.424 164.158 178.006 164.876C178.63 165.16 179.771 165.64 180.631 165.928C181.386 166.185 182.155 166.399 182.935 166.57C184.453 170.262 185.063 174.264 184.716 178.24C184.545 180.113 183.899 182.247 183.313 183.763C182.205 186.625 180.949 188.209 180.949 188.209C180.949 188.209 176.746 187.595 175.942 187.491Z" fill="#E6ECF6"/>
<path fill-rule="evenodd" clip-rule="evenodd" d="M0.782318 187.281L2.00148 185.388L3.82371 184.215L82.0848 184.306L82.9242 184.975L131.078 269.398L130.481 271.056L128.541 272.388L49.8802 272.423L49.0743 271.337L0.782318 187.281Z" fill="#5D9BFC" fill-opacity="0.4"/>
<path fill-rule="evenodd" clip-rule="evenodd" d="M21.5007 186.119L19.3788 182.621L19.7938 181.32L21.1303 180.996C21.1303 180.996 34.7086 179.931 36.153 179.895C37.5974 179.86 41.8039 180.116 44.1697 180.178C46.5354 180.239 49.6959 180.71 51.9091 180.896C54.1222 181.082 57.292 181.453 57.292 181.453L57.9825 182.618L59.8439 186.065L21.5007 186.119Z" fill="#DBDBDB"/>
<path fill-rule="evenodd" clip-rule="evenodd" d="M24.1177 228.492C23.1966 228.75 22.2973 229.08 21.4281 229.479C20.2368 230.058 18.3997 231.179 17.7538 231.897C17.108 232.615 16.2555 233.461 16.0786 234.515C15.9018 235.569 16.3858 237.407 16.691 237.78C16.9963 238.154 17.3388 238.833 18.1894 239.242C19.04 239.651 21.5249 240.941 21.5249 240.941C21.5249 240.941 21.1172 242.643 20.9795 243.322C20.8418 244 20.7078 245.499 20.946 246.382C21.1843 247.266 21.389 248.22 22.1372 248.729C22.8855 249.239 25.0651 250.293 25.0651 250.293C25.0651 250.293 24.4732 250.782 24.2889 252.076C24.1047 253.371 23.9167 254.336 24.4136 255.001C24.9106 255.667 25.3331 256.16 26.5504 256.738C27.6499 257.252 28.8219 257.595 30.0255 257.753C30.8873 257.845 30.6249 257.683 30.8854 259.1C31.146 260.517 31.2186 261.703 32.1121 262.22C33.0055 262.737 33.75 263.362 35.2986 263.522C36.8473 263.682 39.0101 263.287 40.1381 263.207C41.266 263.127 42.9021 262.421 43.7137 261.534C44.5252 260.647 46.6918 258.845 47.7527 257.504C48.8137 256.164 50.1259 255.219 50.7104 254.263C51.2948 253.307 51.4847 252.868 51.2483 252.268C51.0119 251.667 50.018 251.496 50.474 250.888C50.93 250.28 51.3767 250.07 51.7136 249.079C52.0505 248.088 52.2311 247.621 51.7136 247.033C51.3907 246.636 50.9438 246.357 50.4442 246.243C50.0273 246.109 50.4628 246.038 50.3809 245.244C50.299 244.45 50.0087 243.774 49.3144 243.284C48.6201 242.795 46.4963 242.342 45.2195 242.117C43.9426 241.892 40.6872 242.117 39.4233 242.178C38.1595 242.239 34.1614 242.755 33.6011 242.842C33.0409 242.929 32.3112 242.589 32.3112 242.589L31.2093 240.709C32.2261 240.569 33.2207 240.299 34.1688 239.906C35.5499 239.296 37.1637 238.861 38.0069 238.398C38.85 237.935 39.1925 237.206 38.8817 236.503C38.5708 235.8 37.951 235.313 36.5681 234.982C35.1851 234.651 34.3959 234.078 33.0595 233.978C31.9112 233.902 30.7593 233.897 29.6104 233.963C28.7476 233.963 27.8853 233.919 27.0269 233.831L24.1177 228.492Z" fill="#E6ECF6"/>
<path fill-rule="evenodd" clip-rule="evenodd" d="M133.528 141.457L131.685 131.879L130.487 131.135L129.455 130.949L129.295 129.738C129.917 129.833 130.543 129.895 131.172 129.924C131.795 129.924 135.706 129.681 136.964 129.623C138.222 129.565 141.99 128.989 143.935 128.567C145.88 128.145 147.521 127.773 148.605 127.44C149.256 127.236 149.841 126.862 150.298 126.356L150.872 127.317C150.571 127.706 150.244 128.074 149.891 128.416C149.494 128.76 148.96 128.805 148.979 129.681C148.997 130.556 150.215 140.166 150.215 140.166C150.215 140.166 147.281 140.153 144.489 140.445C141.697 140.737 141.009 140.944 139.183 141.039C137.357 141.133 136.813 140.802 135.685 141.039C134.557 141.275 133.528 141.457 133.528 141.457Z" fill="#ACB2BA"/>
<path fill-rule="evenodd" clip-rule="evenodd" d="M139.717 174.841C139.717 174.841 142.602 175.157 143.59 175.542C144.579 175.927 147.244 177.115 148.901 178.197C150.557 179.28 151.804 180.261 152.525 180.682C153.245 181.102 154.166 181.675 154.166 181.675L155.655 194.319C155.655 194.319 154.511 195.043 153.753 195.266C152.996 195.489 150.775 195.686 149.615 195.991C148.456 196.296 146.725 196.309 145.794 196.372C145.172 196.393 144.552 196.29 143.97 196.067L139.717 174.841Z" fill="#ACB2BA"/>
<path fill-rule="evenodd" clip-rule="evenodd" d="M144.862 196.123C144.862 196.123 147.739 196.419 148.333 196.382C149.446 196.302 150.549 196.116 151.626 195.824C152.865 195.465 154.883 194.708 154.883 194.708L155.099 196.718C155.099 196.718 154.425 197.36 153.889 197.59C153.353 197.821 152.307 197.706 152.4 198.453C152.493 199.201 153.813 209.238 153.813 209.238C153.813 209.238 153.206 210.371 152.865 210.564C152.483 210.788 152.048 210.906 151.605 210.906C151.143 210.892 150.345 210.65 150.096 210.336C149.846 210.021 149.909 208.822 149.701 207.918C149.492 207.014 147.89 198.762 147.89 198.762C147.89 198.762 146.459 198.801 145.986 198.648C145.764 198.586 145.564 198.461 145.41 198.29C145.256 198.118 145.153 197.907 145.115 197.68C145.05 197.239 144.862 196.123 144.862 196.123Z" fill="#555A63"/>
<path fill-rule="evenodd" clip-rule="evenodd" d="M130.635 129.822C129.934 129.149 129.289 128.42 128.707 127.643C127.963 126.596 126.952 124.586 126.583 123.085C126.215 121.584 125.733 118.436 126.044 117.054C126.354 115.673 127.886 111.848 128.934 110.6C129.982 109.352 131.683 107.571 133.695 106.779C135.708 105.987 138.003 105.419 139.652 105.849C141.301 106.278 143.959 106.924 145.658 108.114C147.358 109.304 148.947 111.256 149.684 112.898C150.421 114.54 151.3 116.324 151.3 118.079C151.3 119.834 151.611 121.194 151.184 122.581C150.758 123.968 150.192 125.497 149.712 126.346C149.232 127.196 148.662 127.62 147.106 127.931C145.55 128.241 141.863 129.035 140.078 129.29C138.293 129.545 135.425 129.999 134.269 130.084C133.113 130.17 130.635 129.822 130.635 129.822Z" fill="#1C2039"/>
<path d="M76.8564 64.0171C76.8084 64.017 76.7605 64.0133 76.713 64.006C76.5492 63.9781 72.6535 63.3086 69.2677 61.9809C67.8625 61.4231 66.5837 60.6421 65.5544 60.008C65.1206 59.7232 64.6693 59.4661 64.2031 59.2381C62.6127 59.4218 61.0131 59.5137 59.4121 59.5134C43.9948 59.5134 31.4513 51.0172 31.4513 40.576C31.4513 30.1347 43.9948 21.6386 59.4121 21.6386C74.8294 21.6386 87.3728 30.1329 87.3728 40.576C87.3728 47.4413 81.8968 53.7786 73.076 57.1108C72.9361 57.3986 72.8697 57.7164 72.8827 58.036C72.8957 58.3556 72.9877 58.667 73.1505 58.9425C74.2524 60.6514 77.2454 62.4161 77.2826 62.4347C77.4435 62.5291 77.5688 62.6738 77.6393 62.8464C77.7097 63.0191 77.7214 63.21 77.6725 63.3899C77.6237 63.5699 77.5169 63.7287 77.3688 63.8421C77.2206 63.9554 77.0392 64.0169 76.8526 64.0171H76.8564ZM64.2403 57.5311C64.7783 57.5311 65.3571 57.8919 66.4516 58.5613C67.4213 59.16 68.6312 59.9039 69.8913 60.4003C70.9417 60.8029 72.0121 61.1511 73.0984 61.4435C72.5788 60.9736 72.1176 60.4429 71.7247 59.8629C71.4465 59.4096 71.2703 58.9012 71.2082 58.373C71.1462 57.8448 71.1999 57.3094 71.3655 56.804C71.5758 56.1681 71.9387 55.7255 72.3873 55.5563C80.5771 52.4806 85.6753 46.7403 85.6753 40.576C85.6753 31.0701 73.895 23.3382 59.4158 23.3382C44.9366 23.3382 33.1563 31.0701 33.1563 40.576C33.1563 50.0819 44.9366 57.8138 59.4158 57.8138C60.9815 57.8142 62.5459 57.7223 64.1007 57.5385C64.1471 57.5333 64.1937 57.5308 64.2403 57.5311Z" fill="#5D9BFC"/>
<path d="M255.061 200.8C254.868 200.799 254.68 200.733 254.53 200.612C254.379 200.491 254.273 200.323 254.231 200.134C252.519 192.432 246.661 183.09 240.457 173.199C239.44 171.579 238.412 169.934 237.375 168.266C232.978 161.17 228.612 151.625 225.393 142.08C224.913 140.654 224.457 139.281 224.024 137.961C221.045 128.935 218.894 122.414 214.11 117.623C209.628 113.136 203.084 111.262 198.55 110.245C196.759 109.843 194.892 109.438 192.99 109.025C184.917 107.275 176.567 105.468 170.807 103.192C170.603 103.105 170.441 102.942 170.356 102.738C170.27 102.534 170.268 102.304 170.349 102.099C170.431 101.893 170.589 101.727 170.791 101.636C170.992 101.545 171.222 101.536 171.43 101.611C177.064 103.843 185.343 105.63 193.351 107.364C195.257 107.777 197.129 108.183 198.924 108.586C203.663 109.652 210.52 111.623 215.314 116.422C220.383 121.499 222.588 128.18 225.639 137.435C226.075 138.753 226.527 140.122 227.005 141.543C230.185 150.97 234.49 160.387 238.821 167.377C239.853 169.043 240.879 170.685 241.898 172.303C248.182 182.32 254.116 191.783 255.893 199.772C255.941 199.992 255.901 200.222 255.78 200.412C255.658 200.601 255.467 200.736 255.247 200.785C255.186 200.796 255.123 200.801 255.061 200.8Z" fill="#5D9BFC" fill-opacity="0.5"/>
<path d="M159.283 128.133C158.516 128.133 158.133 127.419 157.049 125.396C155.728 122.938 153.733 119.223 151.188 117.482C151.002 117.355 150.874 117.159 150.833 116.937C150.792 116.715 150.84 116.486 150.968 116.3C151.095 116.114 151.292 115.987 151.513 115.945C151.735 115.904 151.964 115.953 152.15 116.08C155.034 118.053 157.148 121.988 158.548 124.591C158.764 124.995 158.993 125.42 159.196 125.777C159.877 124.338 161.081 121.527 162.174 118.972C162.805 117.493 163.464 115.955 164.102 114.49C165.358 111.6 166.618 108.828 167.638 106.602C168.755 104.133 169.829 101.788 170.082 101.023C169.759 100.573 168.837 99.5359 168.139 98.7605C167.209 97.7154 166.239 96.6332 165.703 95.9024C165.33 95.3929 164.943 94.7271 164.534 94.0224C163.547 92.3228 162.194 89.9947 160.783 89.7771C160.576 89.7268 160.396 89.6007 160.277 89.4238C160.159 89.2469 160.111 89.032 160.144 88.8217C160.176 88.6113 160.287 88.4208 160.453 88.2879C160.619 88.1549 160.829 88.0891 161.042 88.1035C163.257 88.4457 164.781 91.0788 166.006 93.1782C166.391 93.842 166.751 94.4687 167.075 94.9057C167.562 95.5695 168.502 96.6201 169.409 97.6373C171.456 99.9375 171.78 100.356 171.828 100.826C171.875 101.336 171.579 102.061 169.193 107.309C168.182 109.529 166.924 112.294 165.673 115.171C165.036 116.632 164.37 118.168 163.748 119.645C160.128 128.104 160.098 128.104 159.35 128.135L159.283 128.133Z" fill="#5D9BFC" fill-opacity="0.5"/>
<path d="M125.532 93.5111C125.018 93.5164 124.504 93.4779 123.996 93.3958C120.477 92.8379 115.754 88.5331 111.98 82.4246C109.255 77.9431 106.999 72.0652 106.228 67.4461C105.761 64.88 105.761 62.0052 105.761 58.9611C105.761 57.507 105.761 56.0045 105.705 54.5429C105.705 52.5327 105.288 50.028 104.92 47.8189C104.763 46.8891 104.618 46.0002 104.516 45.2397C104.356 43.9585 103.226 32.6433 112.458 27.4943C112.655 27.3843 112.889 27.3572 113.106 27.4189C113.323 27.4806 113.507 27.6261 113.618 27.8234C113.728 28.0207 113.755 28.2535 113.693 28.4708C113.631 28.6881 113.486 28.8719 113.288 28.9819C106.587 32.7232 105.677 40.827 106.202 45.0258C106.303 45.7697 106.446 46.625 106.599 47.5436C106.971 49.8178 107.404 52.397 107.404 54.5131C107.462 55.9747 107.462 57.4884 107.462 58.9648C107.462 61.9289 107.462 64.7294 107.903 67.1579C108.648 71.5929 110.813 77.2347 113.43 81.5413C116.843 87.0641 121.305 91.2517 124.277 91.7203C126.697 92.1499 133.893 91.2945 143.842 85.0168C149.239 81.5822 153.104 75.6131 153.148 75.5536C153.207 75.4569 153.285 75.3728 153.376 75.3064C153.468 75.24 153.572 75.1926 153.683 75.167C153.793 75.1414 153.908 75.1381 154.019 75.1573C154.131 75.1765 154.238 75.2177 154.333 75.2787C154.429 75.3397 154.511 75.4191 154.575 75.5123C154.64 75.6055 154.685 75.7106 154.708 75.8214C154.731 75.9323 154.732 76.0466 154.71 76.1577C154.688 76.2689 154.645 76.3745 154.581 76.4685C154.418 76.7252 150.487 82.8114 144.759 86.4523C135.896 92.0383 129.096 93.5111 125.532 93.5111Z" fill="#5D9BFC" fill-opacity="0.5"/>
<path d="M122.265 66.6224C122.136 66.6207 122.009 66.5902 121.893 66.5331C121.735 66.4532 118.006 64.5583 118.006 61.6779C118.006 60.4358 118.703 59.6919 119.309 59.0355C120.002 58.2917 120.655 57.5944 120.735 56.0064C120.735 55.1064 120.363 53.5183 119.583 51.1976C119.546 51.0913 119.53 50.9786 119.537 50.8662C119.544 50.7537 119.573 50.6437 119.622 50.5426C119.672 50.4414 119.741 50.3511 119.826 50.277C119.911 50.2029 120.01 50.1463 120.117 50.1107C120.224 50.0751 120.337 50.0611 120.449 50.0695C120.562 50.0779 120.671 50.1085 120.772 50.1597C120.872 50.2108 120.962 50.2814 121.035 50.3673C121.108 50.4533 121.163 50.5528 121.197 50.6602C122.042 53.1929 122.435 54.9037 122.435 56.0529C122.323 58.3066 121.299 59.4 120.553 60.2015C119.979 60.8151 119.702 61.1312 119.702 61.6891C119.702 63.2102 121.884 64.642 122.649 65.0232C122.82 65.1084 122.957 65.2486 123.039 65.4212C123.12 65.5939 123.141 65.789 123.098 65.975C123.055 66.161 122.951 66.3271 122.801 66.4466C122.652 66.5661 122.467 66.6319 122.276 66.6335L122.265 66.6224Z" fill="#5D9BFC" fill-opacity="0.5"/>
<path fill-rule="evenodd" clip-rule="evenodd" d="M110.652 53.6596C110.652 51.7834 111.507 50.0763 112.873 50.0763C114.068 50.0763 115.265 51.4412 115.265 53.4886C115.265 55.3648 114.41 57.0719 113.044 57.0719C111.847 57.0719 110.652 55.5359 110.652 53.6596Z" fill="#5D9BFC" fill-opacity="0.5"/>
<path d="M108.264 42.3946C108.083 42.3948 107.907 42.3373 107.761 42.2306C107.615 42.1239 107.507 41.9735 107.453 41.8013C107.398 41.629 107.4 41.4438 107.458 41.2727C107.516 41.1015 107.627 40.9532 107.775 40.8494C107.929 40.7397 111.656 38.2014 116.657 40.6095C116.758 40.6583 116.848 40.7265 116.922 40.8101C116.996 40.8936 117.053 40.991 117.09 41.0966C117.126 41.2022 117.142 41.3139 117.135 41.4255C117.128 41.537 117.1 41.6461 117.051 41.7466C117.002 41.8471 116.934 41.937 116.85 42.0111C116.766 42.0853 116.669 42.1422 116.563 42.1787C116.457 42.2153 116.346 42.2306 116.234 42.224C116.122 42.2173 116.013 42.1887 115.912 42.1399C111.834 40.18 108.864 42.1585 108.739 42.244C108.599 42.3403 108.434 42.3928 108.264 42.3946Z" fill="#5D9BFC" fill-opacity="0.5"/>
<path d="M115.946 52.4658C115.827 52.4657 115.71 52.4403 115.602 52.3914C113.026 51.2478 111.021 51.2144 109.645 52.2855C109.558 52.3582 109.456 52.4126 109.347 52.4454C109.238 52.4782 109.123 52.4887 109.01 52.4764C108.897 52.4641 108.787 52.4292 108.688 52.3737C108.588 52.3182 108.501 52.2433 108.431 52.1534C108.361 52.0636 108.31 51.9606 108.28 51.8506C108.251 51.7406 108.244 51.6258 108.26 51.513C108.276 51.4003 108.314 51.2919 108.373 51.1943C108.431 51.0966 108.509 51.0118 108.601 50.9447C110.517 49.4571 113.107 49.4218 116.3 50.8387C116.478 50.9176 116.624 51.0555 116.713 51.2292C116.802 51.4029 116.828 51.6019 116.788 51.7927C116.747 51.9836 116.642 52.1546 116.49 52.2772C116.338 52.3998 116.149 52.4664 115.953 52.4658H115.946Z" fill="#5D9BFC" fill-opacity="0.5"/>
<path fill-rule="evenodd" clip-rule="evenodd" d="M136.439 53.4885C136.439 51.6123 135.415 50.0763 134.049 49.9052C132.683 49.9052 131.488 51.2701 131.488 53.3175C131.488 55.1956 132.514 56.7297 133.878 56.9008C135.073 56.9008 136.27 55.3648 136.439 53.4885Z" fill="#5D9BFC" fill-opacity="0.5"/>
<path d="M140.367 42.9079C140.237 42.9067 140.11 42.8762 139.994 42.8186C139.925 42.7833 133.208 39.4882 129.571 41.9112C129.383 42.0364 129.154 42.0821 128.932 42.0382C128.711 41.9943 128.516 41.8643 128.391 41.6769C128.265 41.4895 128.22 41.26 128.264 41.0389C128.308 40.8178 128.438 40.6232 128.625 40.4979C133.093 37.5227 140.439 41.1432 140.75 41.2975C140.921 41.3827 141.058 41.5229 141.14 41.6956C141.221 41.8682 141.242 42.0633 141.199 42.2493C141.156 42.4354 141.052 42.6015 140.903 42.721C140.754 42.8404 140.569 42.9063 140.378 42.9079H140.367Z" fill="#5D9BFC" fill-opacity="0.5"/>
<path d="M138.317 52.8042C138.127 52.8025 137.944 52.737 137.796 52.6183C136.549 51.6476 132.893 50.8294 131.179 52.2594C131.005 52.3911 130.787 52.4509 130.57 52.4263C130.353 52.4017 130.153 52.2947 130.013 52.1274C129.873 51.9601 129.803 51.7453 129.817 51.5276C129.831 51.3098 129.928 51.1058 130.088 50.9577C132.586 48.8788 137.174 49.9852 138.836 51.2813C138.977 51.39 139.079 51.5398 139.13 51.7097C139.181 51.8795 139.177 52.061 139.119 52.2287C139.062 52.3963 138.953 52.5418 138.809 52.6447C138.664 52.7475 138.491 52.8027 138.313 52.8024L138.317 52.8042Z" fill="#5D9BFC" fill-opacity="0.5"/>
<path d="M160.18 69.0156C159.975 69.0104 159.778 68.9309 159.627 68.792C159.475 68.6531 159.379 68.4641 159.357 68.2599C159.334 68.0558 159.386 67.8504 159.503 67.6816C159.62 67.5129 159.795 67.3922 159.994 67.342C164.709 66.3342 167.16 62.4348 167.879 59.1211C168.478 56.4304 167.912 54.1004 166.365 52.8991C164.819 51.6979 162.365 51.7351 159.698 53.0683C159.496 53.169 159.263 53.1853 159.049 53.1138C158.835 53.0423 158.658 52.8889 158.557 52.6871C158.456 52.4854 158.44 52.252 158.512 52.0383C158.583 51.8245 158.737 51.6479 158.939 51.5473C162.215 49.9109 165.304 49.9146 167.413 51.5584C169.489 53.1799 170.285 56.1421 169.541 59.4856C168.709 63.3125 165.855 67.8274 160.35 69.0045C160.294 69.0139 160.237 69.0177 160.18 69.0156Z" fill="#5D9BFC" fill-opacity="0.5"/>
<path d="M161.883 60.3093C161.729 60.3094 161.578 60.2669 161.446 60.1866C161.35 60.1292 161.267 60.0536 161.201 59.964C161.134 59.8745 161.086 59.7727 161.059 59.6646C161.032 59.5565 161.027 59.4442 161.044 59.334C161.06 59.2238 161.098 59.118 161.156 59.0225C161.28 58.8179 162.41 57.003 164.07 56.5884C164.289 56.5336 164.521 56.568 164.715 56.684C164.908 56.7999 165.048 56.9879 165.103 57.2067C165.157 57.4254 165.123 57.6569 165.007 57.8503C164.891 58.0436 164.703 58.183 164.484 58.2378C163.652 58.4442 162.851 59.5078 162.622 59.8983C162.546 60.0251 162.437 60.1297 162.307 60.2018C162.178 60.2739 162.032 60.3109 161.883 60.3093Z" fill="#5D9BFC" fill-opacity="0.5"/>
<path d="M96.0541 34.633C94.5166 34.6348 93.0001 34.2769 91.626 33.5879C91.4607 33.4967 91.3306 33.3532 91.256 33.1799C91.1814 33.0067 91.1666 32.8136 91.2139 32.631C91.2613 32.4484 91.368 32.2868 91.5175 32.1715C91.6669 32.0562 91.8504 31.9939 92.0392 31.9943C92.2123 31.9943 96.5287 31.8084 99.9759 24.3015C103.589 16.5863 107.659 8.75771 114.168 5.14837C122.124 0.702253 139.164 -1.82298 147.709 1.57065C150.433 2.65289 152.143 4.25022 152.793 6.31987C152.86 6.5349 152.84 6.76796 152.735 6.96778C152.631 7.1676 152.451 7.31782 152.236 7.38538C152.021 7.45295 151.788 7.43232 151.588 7.32806C151.388 7.22379 151.237 7.04441 151.17 6.82938C150.68 5.2711 149.308 4.0401 147.075 3.14939C138.937 -0.0824653 122.63 2.36281 114.989 6.63413C108.923 9.99987 105.005 17.5626 101.511 25.0192C99.3672 29.6941 96.8116 31.853 94.8926 32.8478C96.0782 33.0271 97.2894 32.9265 98.4291 32.554C98.6421 32.4866 98.873 32.5056 99.0721 32.6069C99.2712 32.7082 99.4224 32.8837 99.493 33.0954C99.5636 33.3071 99.5481 33.5381 99.4497 33.7385C99.3513 33.9389 99.1779 34.0925 98.967 34.1662C98.0275 34.4776 97.0439 34.6352 96.0541 34.633Z" fill="#5D9BFC" fill-opacity="0.5"/>
<path d="M144.218 39.5142C142.202 39.5142 140.041 39.2799 138.042 38.5956C132.806 36.8514 130.008 33.335 127.375 29.5788C127.079 29.2069 126.749 28.7606 126.416 28.3087C125.13 26.5664 123.691 24.6139 122.291 24.6194C121.461 24.6362 120.54 25.3818 119.555 26.8379C119.427 27.0207 119.232 27.1459 119.013 27.1865C118.793 27.2271 118.566 27.1797 118.381 27.0548C118.196 26.9298 118.068 26.7371 118.024 26.5184C117.98 26.2997 118.024 26.0725 118.146 25.8858C119.477 23.9184 120.821 22.9496 122.256 22.9198C124.556 22.8733 126.178 25.1234 127.786 27.3009C128.108 27.736 128.424 28.1656 128.741 28.5654C131.231 32.1189 133.835 35.4028 138.587 36.9853C141.212 37.8853 144.219 37.915 146.695 37.6863C142.368 36.4609 138.645 33.6858 136.236 29.8912C136.176 29.7972 136.135 29.6922 136.115 29.5823C136.096 29.4724 136.098 29.3598 136.122 29.2507C136.146 29.1417 136.191 29.0384 136.255 28.9468C136.319 28.8552 136.4 28.7771 136.494 28.7169C136.588 28.6567 136.693 28.6156 136.803 28.596C136.913 28.5764 137.026 28.5786 137.135 28.6025C137.244 28.6264 137.348 28.6715 137.439 28.7354C137.531 28.7992 137.609 28.8804 137.669 28.9745C142.792 36.9704 151.858 36.7751 151.951 36.7733C152.16 36.7624 152.364 36.8299 152.525 36.9624C152.686 37.095 152.792 37.2829 152.821 37.4892C152.853 37.694 152.809 37.9035 152.698 38.0785C152.586 38.2534 152.415 38.3817 152.216 38.4394C149.606 39.1343 146.918 39.4954 144.218 39.5142Z" fill="#5D9BFC" fill-opacity="0.5"/>
<path d="M106.213 51.2683C106.029 51.2682 105.851 51.2088 105.703 51.0989C105.556 50.989 105.448 50.8345 105.396 50.6584C104.89 48.9346 103.699 47.3819 102.437 45.7381C99.6278 42.0785 96.445 37.9281 99.2723 30.3319C99.3506 30.1208 99.5095 29.9495 99.7143 29.8555C99.919 29.7615 100.153 29.7526 100.364 29.8308C100.575 29.9089 100.747 30.0678 100.841 30.2723C100.935 30.4768 100.944 30.7103 100.866 30.9214C98.3714 37.6436 101.126 41.2324 103.79 44.7042C105.15 46.4782 106.437 48.1517 107.032 50.1786C107.096 50.3946 107.071 50.627 106.963 50.8246C106.855 51.0223 106.673 51.1692 106.457 51.233C106.378 51.2567 106.296 51.2686 106.213 51.2683Z" fill="#5D9BFC" fill-opacity="0.5"/>
<path d="M156.249 48.3749C156.128 48.3745 156.009 48.3486 155.899 48.299C155.789 48.2493 155.691 48.1769 155.611 48.0866C154.088 46.3573 152.446 45.7641 150.54 45.0779C148.033 44.1742 145.193 43.1496 142.099 39.3599C141.957 39.1851 141.89 38.9609 141.913 38.7366C141.936 38.5124 142.047 38.3065 142.222 38.1642C142.397 38.0219 142.622 37.9549 142.846 37.978C143.071 38.001 143.277 38.1121 143.419 38.2869C146.211 41.7103 148.707 42.6103 151.119 43.4787C153.154 44.2133 155.077 44.9069 156.889 46.9635C156.998 47.0862 157.068 47.2374 157.092 47.3991C157.117 47.5608 157.094 47.726 157.026 47.875C156.959 48.024 156.85 48.1504 156.712 48.2391C156.575 48.3277 156.415 48.3749 156.251 48.3749H156.249Z" fill="#5D9BFC" fill-opacity="0.5"/>
<path d="M154.202 58.7733C154.084 58.7732 153.968 58.7488 153.86 58.7015C153.753 58.6542 153.656 58.5851 153.576 58.4986C153.497 58.4121 153.436 58.3101 153.398 58.1989C153.36 58.0878 153.345 57.9699 153.355 57.8529C153.355 57.7952 153.8 52.1348 151.121 48.3488C151.055 48.2578 151.008 48.1546 150.982 48.0453C150.957 47.9359 150.953 47.8225 150.971 47.7117C150.989 47.6008 151.03 47.4947 151.089 47.3995C151.149 47.3042 151.227 47.2218 151.319 47.1568C151.411 47.0919 151.514 47.0459 151.624 47.0213C151.734 46.9967 151.847 46.9941 151.958 47.0136C152.069 47.0332 152.175 47.0745 152.269 47.1351C152.364 47.1958 152.446 47.2746 152.51 47.367C154.643 50.3757 155.047 54.2472 155.091 56.3969C156.223 55.5099 157.774 53.7266 157.967 50.5375C157.974 50.426 158.003 50.317 158.051 50.2165C158.1 50.1161 158.169 50.0263 158.252 49.9522C158.336 49.8782 158.433 49.8213 158.539 49.7848C158.645 49.7484 158.757 49.733 158.868 49.7398C158.98 49.7465 159.089 49.7751 159.189 49.8239C159.29 49.8728 159.38 49.941 159.454 50.0246C159.528 50.1081 159.585 50.2055 159.622 50.311C159.658 50.4166 159.673 50.5283 159.667 50.6398C159.294 56.7371 154.717 58.6357 154.522 58.7138C154.42 58.7544 154.311 58.7747 154.202 58.7733Z" fill="#5D9BFC" fill-opacity="0.5"/>
<path d="M144.856 27.723C138.663 27.723 134.459 23.5038 130.984 20.0153C128.936 17.955 127.159 16.1754 125.474 15.7551C121.102 14.7361 118.114 21.025 118.085 21.0901C117.99 21.2945 117.817 21.4529 117.605 21.5303C117.393 21.6077 117.159 21.5979 116.955 21.5029C116.75 21.408 116.592 21.2357 116.514 21.0241C116.437 20.8124 116.447 20.5786 116.542 20.3742C116.687 20.0637 120.141 12.7669 125.874 14.1039C128.03 14.6413 129.958 16.5752 132.19 18.8159C136.136 22.7767 140.608 27.2619 147.698 25.6962C147.807 25.6717 147.92 25.669 148.03 25.6882C148.141 25.7074 148.246 25.748 148.34 25.8078C148.435 25.8677 148.517 25.9455 148.581 26.0369C148.645 26.1283 148.691 26.2314 148.715 26.3405C148.74 26.4495 148.743 26.5623 148.723 26.6724C148.704 26.7824 148.664 26.8877 148.604 26.982C148.544 27.0764 148.466 27.1581 148.374 27.2223C148.283 27.2866 148.18 27.3323 148.071 27.3567C147.015 27.5949 145.938 27.7177 144.856 27.723Z" fill="#5D9BFC" fill-opacity="0.5"/>
<path d="M111.849 21.9232C111.678 21.923 111.511 21.8713 111.369 21.7748C111.228 21.6782 111.119 21.5414 111.056 21.3821C110.213 19.225 110.286 17.1777 111.27 15.2996C113.67 10.7251 120.45 8.99764 121.215 8.8154C121.432 8.7698 121.659 8.8107 121.846 8.92939C122.033 9.04808 122.167 9.23517 122.218 9.45077C122.269 9.66637 122.234 9.89344 122.12 10.0836C122.006 10.2737 121.823 10.4118 121.608 10.4685C119.112 11.0617 114.442 12.9138 112.778 16.088C112.02 17.5328 111.976 19.0632 112.64 20.7647C112.681 20.8686 112.701 20.9795 112.699 21.0911C112.697 21.2026 112.672 21.3127 112.627 21.4148C112.582 21.517 112.517 21.6092 112.437 21.6862C112.356 21.7633 112.261 21.8236 112.156 21.8637C112.059 21.9032 111.954 21.9234 111.849 21.9232Z" fill="#5D9BFC" fill-opacity="0.5"/>
<path d="M168.033 53.3156C167.884 53.3161 167.737 53.2775 167.607 53.2035C167.478 53.1294 167.37 53.0227 167.294 52.8939C167.219 52.7651 167.179 52.6187 167.178 52.4695C167.177 52.3203 167.215 52.1735 167.289 52.0437C169.411 48.3246 171.274 42.0692 171.274 38.6458C171.274 38.4204 171.363 38.2043 171.523 38.0449C171.682 37.8856 171.899 37.796 172.124 37.796C172.35 37.796 172.566 37.8856 172.726 38.0449C172.885 38.2043 172.975 38.4204 172.975 38.6458C172.975 42.6996 170.756 49.405 168.765 52.8861C168.691 53.0155 168.585 53.1233 168.457 53.1987C168.328 53.2741 168.182 53.3144 168.033 53.3156Z" fill="#5D9BFC" fill-opacity="0.5"/>
<path d="M170.254 42.0525C170.117 42.0522 169.982 42.0189 169.86 41.9554C169.739 41.8918 169.634 41.7999 169.556 41.6875C169.477 41.5751 169.427 41.4454 169.41 41.3096C169.392 41.1737 169.408 41.0356 169.455 40.907C169.481 40.8382 171.99 33.9189 168.871 29.4021C168.742 29.2167 168.693 28.9879 168.734 28.7661C168.774 28.5443 168.901 28.3477 169.087 28.2195C169.272 28.0913 169.501 28.0419 169.723 28.0824C169.945 28.1228 170.142 28.2497 170.27 28.4352C172.504 31.6726 172.318 35.7598 171.834 38.4952C173.74 36.2749 175.981 32.4518 174.084 28.0614C168.908 15.6547 163.626 8.95295 157.926 7.56575C157.818 7.53925 157.715 7.49166 157.625 7.42569C157.535 7.35972 157.459 7.27666 157.401 7.18126C157.343 7.08586 157.304 6.97998 157.287 6.86967C157.27 6.75937 157.275 6.64678 157.302 6.53836C157.328 6.42994 157.376 6.3278 157.442 6.23777C157.508 6.14774 157.591 6.07158 157.687 6.01365C157.782 5.95572 157.888 5.91714 157.998 5.90013C158.109 5.88312 158.222 5.888 158.33 5.91449C164.59 7.4393 170.257 14.4683 175.64 27.3976C179.104 35.4121 170.844 41.8144 170.758 41.8795C170.613 41.9902 170.436 42.0509 170.254 42.0525Z" fill="#5D9BFC" fill-opacity="0.5"/>
<path d="M160.867 92.215C160.681 92.2144 160.499 92.1528 160.351 92.0397C160.203 91.9265 160.096 91.768 160.046 91.5883C158.503 85.9391 159.488 77.2328 160.204 70.877C160.305 69.9807 160.391 69.1439 160.478 68.3871C160.488 68.2759 160.521 68.1678 160.573 68.0692C160.626 67.9707 160.697 67.8836 160.784 67.8131C160.871 67.7426 160.971 67.6901 161.078 67.6587C161.185 67.6273 161.298 67.6176 161.409 67.6302C161.633 67.6532 161.838 67.764 161.981 67.9383C162.123 68.1126 162.191 68.3362 162.168 68.56C162.088 69.3224 161.993 70.1648 161.891 71.0648C161.228 76.9334 160.227 85.8034 161.684 91.1476C161.714 91.2552 161.722 91.3675 161.708 91.4782C161.694 91.5889 161.658 91.6958 161.603 91.7927C161.548 91.8896 161.474 91.9747 161.386 92.043C161.297 92.1113 161.196 92.1615 161.089 92.1908C161.016 92.2084 160.942 92.2165 160.867 92.215Z" fill="#5D9BFC" fill-opacity="0.5"/>
<path d="M117.917 101.148C117.759 101.148 117.603 101.103 117.469 101.02C117.334 100.936 117.225 100.816 117.155 100.674C117.085 100.532 117.056 100.373 117.072 100.215C117.088 100.057 117.147 99.9072 117.243 99.7814C118.643 97.9498 118.987 94.8072 118.293 90.177C118.281 89.9653 118.348 89.7566 118.481 89.5919C118.615 89.4272 118.805 89.3183 119.015 89.2866C119.225 89.2549 119.439 89.3028 119.615 89.4207C119.792 89.5386 119.918 89.7182 119.968 89.9241C120.744 95.1047 120.305 98.5653 118.587 100.813C118.509 100.917 118.407 101.001 118.291 101.059C118.175 101.117 118.047 101.147 117.917 101.148Z" fill="#5D9BFC" fill-opacity="0.5"/>
<path d="M51.0772 181.221C50.95 181.222 50.8243 181.193 50.7094 181.139C50.5945 181.084 50.4934 181.005 50.4135 180.906C50.3336 180.807 50.277 180.691 50.2479 180.567C50.2187 180.444 50.2178 180.315 50.2451 180.191C51.5481 174.194 52.3708 167.371 53.2382 160.149C55.2856 143.051 57.4205 125.376 66.3586 116.422C71.1515 111.621 78.0086 109.652 82.7494 108.586C85.4595 107.978 88.1025 107.452 90.66 106.944C96.7223 105.737 102.45 104.599 107.382 102.652C107.486 102.611 107.597 102.591 107.709 102.593C107.82 102.595 107.931 102.619 108.033 102.663C108.136 102.707 108.228 102.772 108.306 102.852C108.384 102.932 108.445 103.027 108.486 103.13C108.527 103.234 108.547 103.345 108.545 103.457C108.543 103.568 108.52 103.678 108.475 103.781C108.431 103.883 108.367 103.976 108.286 104.053C108.206 104.131 108.111 104.192 108.007 104.233C102.934 106.236 97.1318 107.394 90.9913 108.61C88.445 109.116 85.8113 109.641 83.1216 110.245C78.5893 111.262 72.0431 113.136 67.5629 117.624C59.0399 126.157 56.9534 143.542 54.9282 160.352C54.0553 167.615 53.2288 174.484 51.9073 180.552C51.8661 180.741 51.7613 180.911 51.6103 181.033C51.4593 181.154 51.2712 181.221 51.0772 181.221Z" fill="#5D9BFC" fill-opacity="0.5"/>
<path d="M117.039 98.6397C116.867 98.6398 116.7 98.5881 116.558 98.4915C116.417 98.3948 116.307 98.2577 116.245 98.0981C116.183 97.9384 116.171 97.7637 116.21 97.5969C116.249 97.4301 116.337 97.2789 116.463 97.1632C117.284 96.4105 118.052 95.6028 118.762 94.7458C118.911 94.5887 119.114 94.4942 119.33 94.4816C119.547 94.4689 119.759 94.5391 119.926 94.6778C120.092 94.8166 120.199 95.0134 120.225 95.2281C120.25 95.4429 120.193 95.6594 120.065 95.8337C119.305 96.7471 118.484 97.6082 117.608 98.411C117.454 98.5558 117.25 98.6375 117.039 98.6397Z" fill="#5D9BFC" fill-opacity="0.5"/>
<path d="M244.664 228.485C240.522 228.485 236.288 227.832 234.302 227.347C224.93 225.061 215.733 217.746 207.622 211.293C204.565 208.863 201.68 206.568 199.028 204.74L198.188 204.16C191.542 199.582 188.51 197.492 189.429 194.92C189.505 194.708 189.662 194.534 189.866 194.438C190.07 194.342 190.304 194.33 190.517 194.406C190.73 194.482 190.903 194.639 191 194.843C191.096 195.047 191.108 195.281 191.032 195.493C190.55 196.835 193.973 199.193 199.153 202.76L199.996 203.34C202.695 205.2 205.602 207.515 208.681 209.964C216.656 216.308 225.695 223.499 234.706 225.695C239.372 226.833 249.341 227.638 252.593 225.186C255.082 223.306 255.329 215.937 255.411 213.515C255.565 208.883 255.145 204.177 254.229 200.263C254.198 200.152 254.189 200.036 254.204 199.922C254.218 199.808 254.256 199.698 254.314 199.599C254.373 199.5 254.451 199.414 254.543 199.346C254.636 199.278 254.742 199.229 254.854 199.203C254.966 199.177 255.082 199.174 255.195 199.194C255.308 199.214 255.416 199.256 255.513 199.319C255.609 199.382 255.692 199.464 255.755 199.56C255.819 199.655 255.863 199.763 255.884 199.876C256.835 203.931 257.27 208.802 257.11 213.573C256.945 218.508 256.399 224.442 253.619 226.541C251.675 228.005 248.202 228.485 244.664 228.485Z" fill="#5D9BFC" fill-opacity="0.5"/>
<path d="M250.324 196.843C250.174 196.845 250.026 196.807 249.895 196.733C249.764 196.659 249.655 196.552 249.579 196.423C246.173 190.614 244.014 188.754 239.633 186.426C237.976 185.546 233.189 183.67 227.648 181.498C218.205 177.8 206.455 173.195 199.396 169.447C198.435 168.911 197.433 168.453 196.4 168.076C197.926 172.353 201.079 184.856 190.931 195.725C190.777 195.89 190.564 195.988 190.339 195.996C190.113 196.004 189.894 195.922 189.729 195.768C189.564 195.615 189.466 195.402 189.458 195.176C189.45 194.951 189.532 194.732 189.686 194.567C200.193 183.311 195.471 170.179 194.417 167.661C194.332 167.466 194.311 167.248 194.356 167.04C194.401 166.831 194.51 166.642 194.669 166.499C195.207 166.008 196.249 165.848 200.195 167.946C207.166 171.648 219.367 176.427 228.267 179.916C234.09 182.197 238.691 184.007 240.431 184.925C245.125 187.421 247.435 189.403 251.041 195.564C251.116 195.693 251.157 195.839 251.157 195.989C251.158 196.139 251.119 196.286 251.045 196.415C250.97 196.545 250.863 196.653 250.734 196.728C250.604 196.803 250.457 196.843 250.307 196.843H250.324Z" fill="#5D9BFC" fill-opacity="0.5"/>
<path d="M190.082 195.88C189.922 195.879 189.766 195.834 189.63 195.75C186.395 193.715 183.034 192.453 180.577 191.532C177.39 190.336 175.467 189.615 175.782 187.999C175.812 187.818 175.882 187.645 175.987 187.494C176.092 187.344 176.229 187.218 176.389 187.127C176.975 186.803 177.638 187.06 178.276 187.313C178.642 187.476 179.029 187.584 179.426 187.635C180.121 187.635 180.711 187.389 180.93 187.03C183.35 183.071 184.301 178.813 183.853 174.014C183.521 170.453 182.84 167.974 181.772 166.432C181.043 165.382 180.001 164.589 178.793 164.167C178.352 163.993 177.973 163.84 177.829 163.383C177.793 163.253 177.784 163.117 177.804 162.984C177.823 162.851 177.871 162.723 177.943 162.609C179.328 160.536 182.41 161.994 186.663 164.007C189.228 165.22 192.135 166.596 195.372 167.613C195.587 167.681 195.767 167.831 195.871 168.031C195.976 168.231 195.996 168.464 195.929 168.679C195.861 168.894 195.711 169.073 195.511 169.177C195.311 169.282 195.077 169.302 194.862 169.235C191.512 168.182 188.42 166.719 185.928 165.543C184.253 164.746 182.525 163.931 181.254 163.539C182.002 164.061 182.649 164.713 183.164 165.465C184.402 167.254 185.18 169.997 185.539 173.856C186.021 179.036 184.981 183.638 182.375 187.919C181.857 188.769 180.807 189.295 179.549 189.338C180.08 189.55 180.646 189.762 181.169 189.959C183.691 190.905 187.147 192.202 190.527 194.327C190.684 194.425 190.804 194.571 190.869 194.743C190.935 194.916 190.943 195.105 190.892 195.282C190.841 195.459 190.734 195.615 190.586 195.726C190.439 195.836 190.259 195.896 190.075 195.896L190.082 195.88Z" fill="#5D9BFC" fill-opacity="0.5"/>
<path d="M208.688 298.667C208.468 298.667 208.257 298.582 208.099 298.43C207.941 298.277 207.848 298.07 207.839 297.85C206.883 273.993 207.653 250.565 208.273 231.739C208.498 224.832 208.714 218.306 208.82 212.532C208.824 212.309 208.915 212.096 209.074 211.94C209.233 211.784 209.448 211.696 209.671 211.697H209.686C209.912 211.701 210.126 211.795 210.283 211.957C210.44 212.12 210.525 212.338 210.521 212.563C210.415 218.348 210.199 224.881 209.963 231.795C209.345 250.592 208.575 273.987 209.529 297.782C209.534 297.893 209.516 298.005 209.478 298.109C209.439 298.214 209.38 298.31 209.304 298.392C209.228 298.474 209.137 298.541 209.035 298.588C208.934 298.634 208.824 298.661 208.712 298.665L208.688 298.667Z" fill="#5D9BFC" fill-opacity="0.5"/>
<path d="M208.761 173.335C208.649 173.334 208.539 173.312 208.436 173.269C208.332 173.226 208.239 173.163 208.16 173.083C208.082 173.004 208.019 172.91 207.977 172.807C207.935 172.704 207.913 172.593 207.914 172.481C207.96 162.775 208.18 152.711 210.255 145.689C210.283 145.578 210.333 145.474 210.402 145.382C210.472 145.291 210.559 145.215 210.658 145.158C210.758 145.101 210.868 145.064 210.982 145.051C211.096 145.038 211.211 145.048 211.321 145.08C211.431 145.112 211.533 145.167 211.622 145.24C211.71 145.312 211.783 145.402 211.836 145.504C211.889 145.606 211.92 145.717 211.929 145.832C211.938 145.946 211.923 146.061 211.886 146.169C209.876 152.979 209.663 162.905 209.617 172.489C209.615 172.714 209.524 172.93 209.364 173.089C209.203 173.247 208.987 173.336 208.761 173.335Z" fill="#5D9BFC" fill-opacity="0.5"/>
<path d="M82.8015 184.814H82.7643C82.6526 184.809 82.543 184.783 82.4416 184.736C82.3402 184.689 82.2491 184.622 82.1736 184.54C82.098 184.458 82.0394 184.361 82.0012 184.256C81.963 184.152 81.9459 184.04 81.9509 183.929C82.0402 181.848 82.1742 179.609 82.3231 177.29C82.982 166.285 83.7303 153.812 80.5549 147.276C80.506 147.175 80.4774 147.066 80.4707 146.955C80.4639 146.843 80.4793 146.732 80.5157 146.626C80.5522 146.521 80.6091 146.423 80.6832 146.34C80.7573 146.256 80.8472 146.188 80.9476 146.139C81.0481 146.09 81.1572 146.062 81.2687 146.055C81.3802 146.048 81.492 146.064 81.5976 146.1C81.7032 146.137 81.8006 146.193 81.8842 146.268C81.9678 146.342 82.036 146.431 82.0849 146.532C85.4558 153.466 84.6907 166.174 84.0207 177.387C83.8829 179.696 83.7489 181.926 83.6596 183.999C83.6504 184.22 83.5557 184.428 83.3956 184.58C83.2354 184.732 83.0224 184.816 82.8015 184.814Z" fill="#5D9BFC" fill-opacity="0.5"/>
<path d="M76.1529 300C76.1035 300 76.0543 299.996 76.0058 299.987C75.8957 299.968 75.7905 299.927 75.6961 299.867C75.6018 299.808 75.5202 299.73 75.456 299.638C75.3919 299.547 75.3464 299.444 75.3223 299.335C75.2981 299.226 75.2957 299.113 75.3153 299.003C76.4749 292.435 76.5232 276.258 76.3278 272.321C76.3165 272.096 76.3951 271.875 76.5464 271.708C76.6977 271.541 76.9093 271.441 77.1347 271.429C77.36 271.418 77.5807 271.497 77.748 271.648C77.9154 271.799 78.0158 272.01 78.0272 272.235C78.2319 276.349 78.1929 292.504 76.9904 299.299C76.9558 299.496 76.8528 299.674 76.6996 299.802C76.5463 299.93 76.3527 300 76.1529 300Z" fill="#5D9BFC" fill-opacity="0.5"/>
<path d="M25.2122 242.491C24.2994 242.501 23.3888 242.4 22.5003 242.191C21.5305 241.949 20.5571 241.436 19.7083 240.984C19.444 240.847 19.1853 240.711 18.9358 240.586L18.7218 240.482C18.0108 240.135 17.1285 239.703 16.5496 238.967C15.2635 237.327 14.8484 235.688 15.3174 234.099C16.2648 230.885 20.5533 228.972 23.0252 228.116C23.1308 228.08 23.2425 228.064 23.3541 228.071C23.4657 228.077 23.5749 228.106 23.6755 228.154C23.7761 228.203 23.8661 228.271 23.9404 228.355C24.0147 228.438 24.0718 228.535 24.1085 228.641C24.1451 228.746 24.1606 228.858 24.1541 228.969C24.1476 229.081 24.1191 229.19 24.0704 229.291C24.0216 229.391 23.9535 229.481 23.87 229.555C23.7865 229.629 23.6892 229.686 23.5836 229.723C19.9577 230.976 17.4784 232.791 16.9517 234.58C16.6427 235.627 16.9517 236.719 17.8823 237.927C18.2192 238.357 18.8781 238.671 19.4607 238.963L19.6841 239.073C19.9465 239.203 20.2164 239.346 20.4938 239.491C21.3053 239.917 22.1429 240.36 22.9135 240.551C25.5863 241.219 29.9158 240.529 35.4309 238.561C35.5239 238.528 35.6449 238.489 35.7826 238.442C37.2717 237.957 38.0851 237.513 38.221 237.141C38.2303 237.115 38.2563 237.044 38.1428 236.862C37.6961 236.142 36.5253 235.807 35.4923 235.512C35.12 235.404 34.7478 235.3 34.4332 235.184C32.5402 234.498 30.3383 234.627 28.2164 234.755C27.7939 234.779 27.3769 234.805 26.9656 234.822C25.9474 234.865 25.0484 234.625 24.1736 234.39C23.6546 234.236 23.1253 234.12 22.5896 234.041C22.3655 234.014 22.1613 233.899 22.0221 233.721C21.8828 233.544 21.8198 233.318 21.8469 233.094C21.8741 232.87 21.9892 232.667 22.1668 232.527C22.3445 232.388 22.5702 232.325 22.7944 232.352C23.4114 232.44 24.0211 232.573 24.6185 232.75C25.3946 232.959 26.1205 233.159 26.8818 233.122C27.2851 233.104 27.694 233.082 28.1084 233.057C30.4072 232.92 32.7822 232.78 34.9953 233.583C35.282 233.688 35.6077 233.769 35.9446 233.875C37.2084 234.247 38.7812 234.688 39.5723 235.964C39.7461 236.218 39.8576 236.509 39.8977 236.815C39.9377 237.12 39.9054 237.43 39.8031 237.721C39.3527 238.954 37.7557 239.569 36.2964 240.049L35.9855 240.151C31.6449 241.708 28.0265 242.491 25.2122 242.491Z" fill="#5D9BFC" fill-opacity="0.5"/>
<path d="M31.4607 251.892C30.0289 251.895 28.6007 251.751 27.1982 251.463C24.5161 250.905 21.242 250.237 20.1252 247.082C19.5315 245.423 19.8795 244.064 20.2146 242.749C20.3658 242.209 20.4808 241.66 20.5589 241.105C20.5724 240.994 20.6075 240.887 20.6624 240.79C20.7173 240.693 20.7908 240.607 20.8788 240.538C20.9668 240.469 21.0675 240.418 21.1752 240.388C21.2828 240.358 21.3954 240.35 21.5063 240.363C21.6173 240.377 21.7245 240.412 21.8219 240.467C21.9193 240.521 22.0049 240.595 22.0739 240.683C22.1428 240.771 22.1938 240.871 22.2238 240.979C22.2539 241.086 22.2624 241.199 22.249 241.31C22.1606 241.937 22.0319 242.558 21.8637 243.169C21.5659 244.333 21.3053 245.339 21.7278 246.516C22.5338 248.772 25.0559 249.293 27.4979 249.795C33.0372 250.936 38.1354 249.406 43.5332 247.786L44.0618 247.634C48.5979 246.364 49.4783 245.416 49.5992 244.964C49.6439 244.798 49.5378 244.582 49.2828 244.324C48.2368 243.255 45.7463 242.955 44.5495 242.81C42.5523 242.57 40.3969 242.855 38.1149 243.162C34.6566 243.621 31.0791 244.092 27.9465 242.619C27.8454 242.571 27.7548 242.504 27.6797 242.421C27.6046 242.338 27.5465 242.242 27.5088 242.137C27.4712 242.031 27.4546 241.92 27.4601 241.808C27.4655 241.697 27.4929 241.587 27.5407 241.486C27.5885 241.385 27.6557 241.295 27.7386 241.22C27.8214 241.145 27.9182 241.087 28.0235 241.049C28.1287 241.011 28.2404 240.995 28.352 241C28.4637 241.006 28.5732 241.033 28.6743 241.081C31.3546 242.351 34.53 241.927 37.8897 241.477C40.1772 241.17 42.543 240.856 44.7542 241.122C46.2433 241.308 49.0353 241.641 50.4982 243.134C51.3749 244.028 51.388 244.861 51.2428 245.403C50.7384 247.294 47.5611 248.419 44.5197 249.27L44.0953 249.391C39.8012 250.672 35.7361 251.892 31.4607 251.892Z" fill="#5D9BFC" fill-opacity="0.5"/>
<path d="M33.4709 258.936C32.3246 258.935 31.1814 258.817 30.0591 258.585C27.7194 258.101 24.8976 257.272 23.8255 255.126C23.1442 253.763 23.282 252.054 24.2331 250.048C24.332 249.848 24.5055 249.695 24.7162 249.622C24.9269 249.548 25.158 249.561 25.3596 249.656C25.5613 249.751 25.7174 249.922 25.7942 250.131C25.8711 250.341 25.8626 250.572 25.7706 250.775C25.0447 252.307 24.9069 253.482 25.348 254.367C25.9213 255.516 27.5277 256.327 30.4015 256.919C36.1307 258.101 40.7542 255.989 46.3642 252.214C46.6639 252.011 47.0566 251.783 47.4959 251.528C48.8267 250.752 50.8463 249.583 51.1441 248.367C51.1876 248.173 51.1895 247.972 51.1497 247.778C51.11 247.583 51.0294 247.399 50.9133 247.238C50.8705 247.169 50.5299 247.085 50.3828 247.052L50.1594 246.994C49.9459 246.932 49.7653 246.788 49.6565 246.594C49.5478 246.4 49.5195 246.171 49.5777 245.957C49.6359 245.742 49.776 245.559 49.9679 245.446C50.1599 245.333 50.3883 245.3 50.6043 245.354L50.7904 245.401C51.2539 245.512 51.9556 245.685 52.3651 246.345C52.602 246.699 52.7628 247.099 52.8375 247.518C52.9121 247.937 52.8989 248.367 52.7988 248.781C52.3204 250.693 50.0292 252.026 48.3558 252.999C47.9538 253.231 47.5946 253.439 47.3191 253.625C43.4196 256.249 38.904 258.936 33.4709 258.936Z" fill="#5D9BFC" fill-opacity="0.5"/>
<path d="M37.1955 264.316C34.9619 264.316 32.8009 263.922 31.4477 262.575C30.3849 261.517 29.9587 260.028 30.1895 258.146C30.2188 257.923 30.3344 257.72 30.5114 257.581C30.6885 257.442 30.913 257.378 31.1369 257.402C31.248 257.415 31.3555 257.45 31.4532 257.505C31.5508 257.56 31.6366 257.633 31.7058 257.721C31.775 257.809 31.8261 257.91 31.8562 258.017C31.8864 258.125 31.8949 258.238 31.8814 258.349C31.7176 259.702 31.9689 260.692 32.652 261.37C34.4314 263.139 38.9395 262.575 40.6371 262.363C42.731 262.101 46.0833 258.179 47.5146 256.506L47.7175 256.268C47.9278 256.024 48.1828 255.753 48.462 255.461C49.2531 254.618 50.5784 253.207 50.489 252.439C50.489 252.37 50.4592 252.184 50.1056 251.952C49.9323 251.822 49.8149 251.632 49.7774 251.419C49.7399 251.206 49.785 250.986 49.9037 250.806C50.0223 250.625 50.2055 250.496 50.4159 250.445C50.6264 250.395 50.8482 250.426 51.0362 250.533C51.8738 251.091 52.1158 251.768 52.1698 252.242C52.3559 253.795 50.878 255.364 49.6942 256.625C49.4411 256.894 49.2028 257.147 49.0074 257.369L48.8064 257.603C46.986 259.734 43.5947 263.7 40.8474 264.044C39.6368 264.209 38.4172 264.3 37.1955 264.316Z" fill="#5D9BFC" fill-opacity="0.5"/>
<path d="M31.9744 243.154C31.8235 243.155 31.675 243.116 31.5441 243.041C31.4133 242.966 31.3048 242.858 31.2299 242.727L30.4984 241.453C30.4428 241.356 30.4068 241.249 30.3925 241.139C30.3782 241.028 30.3859 240.915 30.4151 240.808C30.4443 240.7 30.4945 240.599 30.5628 240.511C30.631 240.422 30.716 240.348 30.8129 240.293C30.9099 240.237 31.0168 240.201 31.1276 240.187C31.2384 240.173 31.351 240.18 31.4588 240.209C31.5667 240.239 31.6677 240.289 31.7562 240.357C31.8446 240.425 31.9188 240.51 31.9744 240.607L32.7059 241.882C32.7615 241.979 32.7975 242.086 32.8117 242.196C32.826 242.307 32.8183 242.419 32.7891 242.527C32.7599 242.634 32.7097 242.735 32.6415 242.823C32.5732 242.912 32.4882 242.986 32.3913 243.041C32.2648 243.115 32.121 243.154 31.9744 243.154Z" fill="#5D9BFC" fill-opacity="0.5"/>
<path d="M127.847 273.23H50.2935C49.0632 273.23 48.6184 272.371 48.2256 271.614L48.0618 271.3L42.8501 262.211C42.7441 262.016 42.7187 261.787 42.7795 261.573C42.8402 261.36 42.9822 261.178 43.1751 261.068C43.368 260.958 43.5964 260.927 43.8115 260.983C44.0266 261.039 44.2114 261.176 44.3261 261.367L49.7426 270.832C50.1037 271.531 50.1409 271.531 50.301 271.531H127.855C127.991 271.53 128.124 271.486 128.233 271.405C128.342 271.324 128.422 271.209 128.462 271.079L80.7727 187.975L80.6833 187.789C80.3111 187 80.2198 186.915 80.0281 186.915H2.46504C2.32922 186.915 2.19709 186.959 2.08815 187.04C1.97922 187.121 1.89926 187.235 1.86011 187.365L27.9186 232.761C27.9741 232.858 28.0099 232.965 28.024 233.076C28.0382 233.187 28.0303 233.299 28.0009 233.407C27.9716 233.515 27.9212 233.616 27.8528 233.704C27.7844 233.792 27.6992 233.866 27.6022 233.922C27.5051 233.977 27.3981 234.013 27.2872 234.027C27.1763 234.041 27.0638 234.033 26.9559 234.004C26.8481 233.975 26.747 233.924 26.6587 233.856C26.5703 233.788 26.4962 233.703 26.4407 233.606L0.24635 187.975C0.171905 187.847 0.132736 187.701 0.132813 187.553C0.133305 186.935 0.379116 186.342 0.816334 185.905C1.25355 185.468 1.84647 185.222 2.46504 185.221H80.0207C81.3348 185.221 81.8224 186.244 82.2133 187.066L82.271 187.186L130.068 270.476C130.142 270.605 130.181 270.75 130.181 270.898C130.181 271.517 129.935 272.11 129.497 272.547C129.06 272.984 128.466 273.23 127.847 273.23Z" fill="#5D9BFC" fill-opacity="0.5"/>
<path d="M128.409 273.258C128.205 273.258 128.007 273.185 127.852 273.052C127.698 272.918 127.596 272.734 127.567 272.532C127.537 272.329 127.581 272.123 127.691 271.951C127.801 271.779 127.97 271.652 128.166 271.594C129.308 271.254 129.98 270.006 130.105 269.363L82.4106 186.242L82.3212 186.056C81.9489 185.271 81.8577 185.186 81.666 185.186H60.1901C59.9645 185.186 59.7481 185.096 59.5886 184.937C59.4291 184.777 59.3395 184.561 59.3395 184.336C59.3395 184.11 59.4291 183.894 59.5886 183.735C59.7481 183.576 59.9645 183.486 60.1901 183.486H81.666C82.9801 183.486 83.4678 184.505 83.8568 185.325L83.9164 185.45L131.713 268.74C131.788 268.868 131.827 269.013 131.827 269.162C131.827 270.426 130.695 272.593 128.653 273.202C128.575 273.233 128.493 273.252 128.409 273.258Z" fill="#5D9BFC" fill-opacity="0.5"/>
<path d="M0.851255 187.967C0.777172 187.967 0.703402 187.958 0.63162 187.94C0.413708 187.882 0.227766 187.739 0.114679 187.545C0.00159175 187.35 -0.029382 187.118 0.0285542 186.9C0.44549 185.327 2.85962 183.506 4.12346 183.506H19.686C19.9116 183.506 20.1279 183.596 20.2874 183.755C20.447 183.915 20.5366 184.131 20.5366 184.356C20.5366 184.582 20.447 184.798 20.2874 184.957C20.1279 185.116 19.9116 185.206 19.686 185.206H4.11229C3.61718 185.249 1.8787 186.508 1.66465 187.335C1.61728 187.515 1.51199 187.674 1.365 187.789C1.21801 187.903 1.03749 187.966 0.851255 187.967Z" fill="#5D9BFC" fill-opacity="0.5"/>
<path d="M21.0168 186.352C20.8661 186.353 20.7178 186.314 20.587 186.239C20.4562 186.164 20.3476 186.056 20.2723 185.926L18.5971 182.99C18.524 182.861 18.4855 182.715 18.4854 182.567C18.4866 181.961 18.7236 181.38 19.1463 180.945C19.5691 180.511 20.1444 180.258 20.7506 180.239C26.3206 179.512 31.9337 179.164 37.5509 179.198C46.1316 179.289 55.9166 180.516 56.7039 180.617C57.9715 180.647 58.4498 181.649 58.8351 182.456L58.8928 182.579L60.3223 185.065C60.4346 185.26 60.4646 185.492 60.4056 185.71C60.3466 185.928 60.2035 186.113 60.0077 186.225C59.812 186.337 59.5797 186.367 59.3619 186.308C59.144 186.249 58.9586 186.106 58.8463 185.911L57.2958 183.19C56.8472 182.261 56.756 182.344 56.5289 182.311C56.4284 182.298 46.3289 180.994 37.5286 180.901C31.9806 180.855 26.4363 181.199 20.9368 181.931C20.8959 181.934 20.8548 181.934 20.8139 181.931C20.6781 181.932 20.546 181.976 20.437 182.057C20.3281 182.138 20.2481 182.252 20.209 182.381L21.7539 185.074C21.8288 185.204 21.868 185.351 21.8676 185.5C21.8672 185.65 21.8272 185.797 21.7516 185.926C21.6759 186.055 21.5674 186.162 21.4371 186.236C21.3067 186.31 21.1592 186.348 21.0094 186.346L21.0168 186.352Z" fill="#5D9BFC" fill-opacity="0.5"/>
<path fill-rule="evenodd" clip-rule="evenodd" d="M117.065 72.1489C117.065 72.1489 119.998 71.0443 124.417 71.0443C127.224 71.0756 130.013 71.5051 132.7 72.3199C132.7 72.3199 131.09 80.6878 125.031 81.0225C119.309 81.3349 117.065 72.1489 117.065 72.1489Z" fill="#5D9BFC" fill-opacity="0.4"/>
<path d="M124.739 81.8798C118.637 81.8798 116.335 72.7458 116.238 72.3497C116.189 72.148 116.216 71.9354 116.313 71.7518C116.41 71.5683 116.571 71.4265 116.765 71.353C116.892 71.3047 119.896 70.1945 124.417 70.1945C127.315 70.2234 130.194 70.6673 132.966 71.5129C133.162 71.5778 133.328 71.7116 133.433 71.8895C133.537 72.0673 133.574 72.2771 133.535 72.4799C133.465 72.8518 131.724 81.5079 125.078 81.8705C124.964 81.876 124.851 81.8798 124.739 81.8798ZM118.114 72.7104C118.775 74.7931 120.947 80.4033 124.985 80.1727C129.301 79.9366 131.127 74.8545 131.685 72.9076C129.318 72.2661 126.879 71.9256 124.426 71.8941C122.295 71.8845 120.173 72.159 118.114 72.7104Z" fill="#5D9BFC" fill-opacity="0.5"/>
<path d="M130.647 130.752C130.429 130.752 130.219 130.668 130.062 130.517C127.719 128.297 125.818 124.567 125.331 121.237C124.19 113.427 129.262 106.195 136.635 105.12C144.007 104.045 150.941 109.523 152.083 117.333C152.62 120.993 151.877 124.738 150.036 127.607C149.976 127.701 149.898 127.783 149.807 127.847C149.715 127.911 149.612 127.956 149.503 127.981C149.394 128.005 149.281 128.007 149.171 127.988C149.061 127.968 148.956 127.928 148.862 127.868C148.767 127.808 148.686 127.73 148.622 127.638C148.558 127.547 148.512 127.444 148.488 127.335C148.464 127.226 148.461 127.113 148.481 127.003C148.5 126.893 148.541 126.788 148.601 126.694C150.217 124.163 150.868 120.841 150.392 117.583C149.385 110.702 143.319 105.868 136.875 106.797C130.431 107.727 126.001 114.103 127.01 120.987C127.445 123.963 129.139 127.31 131.227 129.283C131.351 129.4 131.436 129.551 131.472 129.717C131.508 129.883 131.494 130.056 131.431 130.214C131.368 130.371 131.259 130.507 131.118 130.602C130.977 130.697 130.811 130.748 130.641 130.748L130.647 130.752Z" fill="#5D9BFC" fill-opacity="0.5"/>
<path d="M131.261 130.947C129.455 130.947 128.841 130.666 128.739 129.934C128.689 129.601 128.785 129.117 129.537 128.738C129.738 128.636 129.972 128.618 130.186 128.688C130.4 128.757 130.578 128.909 130.68 129.11C130.7 129.15 130.717 129.192 130.73 129.234C132.166 129.298 135.505 129.076 140.002 128.418C144.499 127.76 147.788 127.009 149.133 126.547C149.136 126.502 149.141 126.457 149.148 126.412C149.191 126.19 149.319 125.995 149.505 125.868C149.691 125.741 149.92 125.692 150.142 125.733C150.956 125.887 151.183 126.319 151.229 126.663C151.247 126.789 151.24 126.918 151.208 127.042C151.176 127.166 151.12 127.282 151.043 127.384C150.151 128.582 142.559 129.772 140.247 130.108C137.444 130.517 134.79 130.8 132.772 130.904C132.193 130.938 131.702 130.947 131.261 130.947Z" fill="#5D9BFC" fill-opacity="0.5"/>
<path d="M131.786 132.02C129.243 132.02 128.994 131.509 128.91 131.09C128.75 130.718 128.478 130.01 128.819 129.379C128.921 129.187 129.093 129.041 129.299 128.972C129.506 128.903 129.731 128.915 129.928 129.006C130.126 129.098 130.281 129.262 130.361 129.464C130.441 129.666 130.441 129.892 130.36 130.094C130.372 130.151 130.389 130.208 130.41 130.263C131.425 130.404 135.045 130.229 140.16 129.484C145.223 128.74 148.722 127.888 149.695 127.459C149.696 127.395 149.685 127.332 149.664 127.273C149.584 127.197 149.52 127.107 149.476 127.006C149.431 126.906 149.408 126.797 149.406 126.688C149.405 126.578 149.425 126.469 149.467 126.367C149.508 126.265 149.569 126.173 149.647 126.096C149.812 125.936 150.032 125.847 150.262 125.848C150.491 125.85 150.711 125.941 150.874 126.103C151.443 126.64 151.41 127.473 151.399 127.788C151.397 127.773 151.397 127.758 151.399 127.743C151.432 127.996 151.365 128.252 151.212 128.457C150.319 129.655 142.729 130.843 140.417 131.179C136.136 131.797 133.465 132.02 131.786 132.02ZM130.57 130.705C130.57 130.722 130.57 130.737 130.57 130.754C130.585 130.737 130.572 130.722 130.57 130.705ZM149.694 127.86C149.691 127.897 149.691 127.933 149.694 127.97C149.697 127.946 149.695 127.909 149.694 127.86Z" fill="#5D9BFC" fill-opacity="0.5"/>
<path d="M149.962 140.235C149.751 140.235 149.549 140.157 149.393 140.016C149.237 139.875 149.138 139.682 149.117 139.473L148.065 129.327C147.99 128.61 148.644 128.026 149.204 127.667C149.394 127.543 149.625 127.501 149.846 127.547C150.068 127.594 150.262 127.727 150.385 127.917C150.508 128.107 150.551 128.337 150.504 128.559C150.458 128.78 150.325 128.973 150.135 129.097C150.012 129.177 149.896 129.268 149.79 129.37L150.818 139.298C150.84 139.522 150.772 139.745 150.63 139.919C150.488 140.093 150.282 140.204 150.058 140.228L149.962 140.235Z" fill="#5D9BFC" fill-opacity="0.5"/>
<path d="M146.453 197.233C144.689 197.233 143.289 196.914 143.136 195.932L138.939 175.445C138.912 175.335 138.909 175.22 138.927 175.107C138.946 174.995 138.988 174.887 139.049 174.791C139.11 174.695 139.19 174.613 139.284 174.548C139.378 174.483 139.484 174.438 139.596 174.416C139.708 174.393 139.823 174.393 139.935 174.415C140.046 174.438 140.152 174.482 140.247 174.547C140.341 174.611 140.421 174.694 140.482 174.79C140.544 174.886 140.586 174.993 140.605 175.105L144.757 195.374C145.334 195.538 147.129 195.642 149.85 195.246C152.571 194.849 154.241 194.243 154.758 193.92L153.269 182.168C153.255 182.057 153.263 181.944 153.293 181.837C153.322 181.729 153.372 181.628 153.441 181.54C153.509 181.452 153.594 181.378 153.691 181.322C153.788 181.267 153.895 181.231 154.006 181.217C154.117 181.203 154.23 181.211 154.337 181.241C154.445 181.27 154.546 181.32 154.635 181.389C154.723 181.457 154.797 181.542 154.852 181.639C154.908 181.736 154.943 181.843 154.957 181.954L156.487 194C156.636 195.013 155.415 195.577 154.334 195.956C152.955 196.406 151.538 196.731 150.101 196.927C148.894 197.113 147.675 197.216 146.453 197.233ZM144.802 195.582V195.634C144.803 195.617 144.803 195.6 144.802 195.582ZM154.796 194.201C154.795 194.209 154.795 194.217 154.796 194.225V194.201Z" fill="#5D9BFC" fill-opacity="0.5"/>
<path d="M133.429 141.282C133.232 141.282 133.041 141.213 132.888 141.087C132.736 140.961 132.633 140.786 132.596 140.592L131.015 132.316C130.872 132.15 130.708 132.005 130.526 131.884C130.338 131.759 130.208 131.564 130.164 131.343C130.12 131.122 130.166 130.893 130.291 130.705C130.417 130.518 130.611 130.388 130.833 130.344C131.054 130.3 131.284 130.346 131.471 130.471C131.868 130.735 132.549 131.276 132.676 131.936L134.267 140.273C134.309 140.494 134.261 140.723 134.134 140.91C134.007 141.096 133.811 141.225 133.589 141.267C133.537 141.277 133.483 141.282 133.429 141.282Z" fill="#5D9BFC" fill-opacity="0.5"/>
<path d="M147.676 199.491C146.086 199.491 144.53 199.203 144.368 198.102C144.357 198.026 144.281 197.603 144.151 196.888C144.131 196.778 144.133 196.665 144.157 196.556C144.181 196.447 144.226 196.343 144.289 196.252C144.353 196.16 144.434 196.082 144.528 196.022C144.622 195.961 144.727 195.92 144.837 195.9C144.947 195.88 145.06 195.882 145.169 195.906C145.279 195.93 145.382 195.975 145.474 196.039C145.566 196.102 145.644 196.184 145.704 196.278C145.765 196.372 145.806 196.476 145.826 196.586C145.908 197.044 145.969 197.388 146.012 197.603C146.49 197.775 147.976 197.912 150.189 197.589C152.402 197.265 153.789 196.707 154.198 196.408L154.085 195.404C154.059 195.18 154.123 194.956 154.262 194.78C154.402 194.603 154.606 194.489 154.829 194.463C155.05 194.443 155.271 194.509 155.444 194.647C155.618 194.786 155.731 194.986 155.76 195.207L155.899 196.439C156.063 197.555 154.544 198.163 154.038 198.36C152.867 198.795 151.651 199.098 150.412 199.262C149.506 199.401 148.592 199.477 147.676 199.491ZM154.219 196.627C154.219 196.64 154.219 196.651 154.219 196.664V196.627Z" fill="#5D9BFC" fill-opacity="0.5"/>
<path d="M151.635 211.652C150.304 211.652 149.215 210.908 149.053 209.793C149.022 209.584 147.806 202.589 147.168 198.92C147.138 198.702 147.194 198.481 147.324 198.303C147.454 198.125 147.648 198.005 147.865 197.967C148.082 197.93 148.306 197.978 148.488 198.102C148.67 198.225 148.798 198.415 148.843 198.63C149.282 201.159 150.717 209.424 150.736 209.549C150.764 209.735 151.227 210.021 151.916 209.921C152.605 209.821 152.964 209.413 152.936 209.224C152.936 209.155 151.762 200.783 151.404 198.219C151.373 197.996 151.432 197.769 151.568 197.589C151.704 197.409 151.906 197.291 152.13 197.259C152.354 197.228 152.581 197.287 152.761 197.423C152.941 197.559 153.059 197.761 153.091 197.985C153.091 197.985 154.591 208.783 154.621 208.976C154.807 210.222 153.722 211.375 152.162 211.602C151.988 211.632 151.812 211.649 151.635 211.652Z" fill="#5D9BFC" fill-opacity="0.5"/>
<path d="M128.724 110.896C128.512 110.895 128.308 110.817 128.151 110.675C126.984 109.613 125.402 108.48 123.724 107.283C121.163 105.453 118.513 103.564 116.854 101.574C115.328 99.7498 115.3 97.1372 116.782 94.9188C117.649 93.6264 118.315 93.1039 119.026 93.1652C119.237 93.185 119.433 93.2827 119.576 93.4392C119.719 93.5957 119.798 93.7997 119.798 94.0113C119.798 94.2229 119.719 94.427 119.576 94.5834C119.433 94.7399 119.237 94.8376 119.026 94.8574C118.933 94.9243 118.673 95.1512 118.194 95.8634C117.359 97.1167 116.908 98.9893 118.157 100.486C119.68 102.305 122.237 104.133 124.711 105.899C126.431 107.128 128.061 108.289 129.295 109.416C129.425 109.531 129.516 109.683 129.557 109.851C129.598 110.019 129.586 110.196 129.524 110.358C129.462 110.519 129.352 110.658 129.208 110.755C129.065 110.853 128.895 110.905 128.722 110.903L128.724 110.896Z" fill="#5D9BFC" fill-opacity="0.5"/>
<path d="M149.027 111.271C148.855 111.271 148.687 111.217 148.545 111.119C148.403 111.021 148.295 110.881 148.234 110.72C148.174 110.559 148.164 110.383 148.206 110.215C148.248 110.048 148.339 109.898 148.469 109.784C148.977 109.349 149.539 108.876 150.133 108.378C152.843 106.104 156.216 103.274 157.95 101.02C160.534 97.6504 162.431 92.8825 159.998 89.6042C159.929 89.5146 159.878 89.4123 159.85 89.303C159.821 89.1937 159.814 89.0798 159.83 88.9679C159.845 88.856 159.883 88.7484 159.941 88.6513C159.999 88.5542 160.076 88.4696 160.167 88.4024C160.258 88.3353 160.361 88.2869 160.471 88.2602C160.581 88.2335 160.695 88.2289 160.807 88.2468C160.918 88.2647 161.025 88.3047 161.121 88.3644C161.217 88.4241 161.301 88.5023 161.366 88.5945C164.344 92.6296 162.254 98.1933 159.294 102.054C157.452 104.456 154.001 107.353 151.227 109.678C150.637 110.172 150.079 110.641 149.574 111.072C149.421 111.201 149.227 111.272 149.027 111.271Z" fill="#5D9BFC" fill-opacity="0.5"/>
<path d="M121.965 130.17C121.241 130.17 120.421 128.756 114.52 116.815C113.344 114.438 111.883 111.686 110.593 109.259C107.706 103.824 107.347 103.071 107.395 102.552C107.44 102.069 107.738 101.704 110.062 99.2998C111.196 98.1264 112.482 96.7969 113.001 96.0884C113.247 95.7537 113.5 95.3743 113.765 94.9727C114.989 93.1355 116.516 90.8482 118.87 90.4838C118.985 90.4561 119.103 90.4524 119.219 90.473C119.335 90.4936 119.445 90.5379 119.543 90.6033C119.641 90.6686 119.724 90.7535 119.788 90.8526C119.851 90.9517 119.893 91.0629 119.911 91.1791C119.929 91.2952 119.923 91.4139 119.893 91.5275C119.862 91.6412 119.809 91.7473 119.736 91.8392C119.662 91.9312 119.571 92.0069 119.467 92.0617C119.362 92.1164 119.248 92.149 119.131 92.1574C117.515 92.4065 116.275 94.2679 115.179 95.9099C114.9 96.3301 114.634 96.7299 114.373 97.0832C113.787 97.8847 112.512 99.1994 111.287 100.471C110.543 101.249 109.545 102.273 109.163 102.744C109.523 103.608 110.881 106.167 112.095 108.452C113.398 110.89 114.859 113.659 116.045 116.05C119.462 122.96 121.113 126.105 121.91 127.529C122.027 127.157 122.155 126.722 122.282 126.319C122.822 124.498 123.563 122.005 124.545 119.996C124.649 119.803 124.824 119.657 125.033 119.59C125.242 119.523 125.469 119.539 125.667 119.635C125.864 119.731 126.017 119.9 126.093 120.106C126.169 120.312 126.162 120.539 126.073 120.74C125.143 122.616 124.435 125.03 123.912 126.793C123.203 129.182 122.982 129.906 122.288 130.095C122.184 130.135 122.076 130.16 121.965 130.17Z" fill="#5D9BFC" fill-opacity="0.5"/>
<path d="M144.659 299.057C144.547 299.056 144.436 299.034 144.333 298.99C144.23 298.947 144.137 298.883 144.058 298.804C143.98 298.724 143.918 298.63 143.876 298.526C143.834 298.423 143.813 298.312 143.814 298.2L143.977 276.072C144.236 241.626 144.502 206.007 144.311 198.543C144.308 198.431 144.327 198.32 144.367 198.216C144.407 198.112 144.468 198.016 144.545 197.935C144.622 197.854 144.714 197.79 144.816 197.744C144.918 197.699 145.028 197.674 145.14 197.671C145.252 197.669 145.363 197.688 145.467 197.728C145.571 197.768 145.667 197.828 145.748 197.905C145.829 197.982 145.894 198.074 145.939 198.176C145.984 198.278 146.009 198.388 146.012 198.5C146.198 205.992 145.937 241.624 145.679 276.085L145.515 298.213C145.513 298.438 145.422 298.653 145.261 298.812C145.101 298.97 144.884 299.058 144.659 299.057Z" fill="#5D9BFC" fill-opacity="0.5"/>
<path d="M180.061 188.968C179.998 188.968 179.936 188.962 179.875 188.947C177.165 188.345 174.248 188.031 171.426 187.728C166.844 187.237 162.105 186.727 158.116 184.955C155.843 183.947 153.602 182.439 151.434 180.981C147.598 178.402 143.631 175.735 139.311 175.65C139.086 175.648 138.87 175.556 138.712 175.395C138.554 175.234 138.467 175.017 138.469 174.792C138.471 174.566 138.563 174.351 138.724 174.193C138.885 174.036 139.102 173.948 139.328 173.95H139.345C144.165 174.045 148.342 176.855 152.374 179.572C154.58 181.059 156.655 182.454 158.797 183.402C162.542 185.065 166.941 185.537 171.599 186.039C174.466 186.346 177.431 186.666 180.236 187.289C180.435 187.339 180.61 187.459 180.727 187.628C180.844 187.797 180.896 188.002 180.874 188.207C180.851 188.411 180.755 188.6 180.604 188.739C180.452 188.878 180.255 188.957 180.05 188.962L180.061 188.968Z" fill="#5D9BFC" fill-opacity="0.5"/>
<path d="M139.471 177.798C139.327 177.798 139.186 177.762 139.06 177.692C137.314 176.725 134.33 174.716 133.986 172.076C133.817 170.774 134.304 169.579 135.432 168.496C135.903 168.044 137.133 167.753 141.772 166.789C144.726 166.181 148.402 165.424 149.608 164.852C149.709 164.804 149.818 164.776 149.93 164.771C150.042 164.765 150.153 164.781 150.258 164.819C150.364 164.856 150.46 164.914 150.543 164.989C150.626 165.064 150.694 165.154 150.742 165.255C150.789 165.356 150.817 165.465 150.823 165.577C150.828 165.688 150.812 165.8 150.774 165.905C150.737 166.01 150.679 166.107 150.604 166.19C150.529 166.273 150.439 166.34 150.338 166.388C148.945 167.048 145.474 167.764 142.114 168.454C139.881 168.915 137.109 169.484 136.568 169.755C135.871 170.44 135.579 171.126 135.672 171.849C135.858 173.212 137.426 174.837 139.884 176.197C140.05 176.288 140.18 176.431 140.254 176.605C140.329 176.778 140.344 176.971 140.296 177.154C140.249 177.336 140.142 177.498 139.993 177.613C139.844 177.728 139.66 177.791 139.471 177.79V177.798Z" fill="#5D9BFC" fill-opacity="0.5"/>
<path d="M135.881 169.66C135.691 169.658 135.506 169.593 135.358 169.474C134.211 168.578 133.027 166.042 132.875 164.153C132.793 163.128 133.005 162.334 133.506 161.793C134.851 160.339 138.593 159.273 143.732 157.927C145.995 157.334 148.136 156.774 149.226 156.287C149.433 156.195 149.667 156.189 149.877 156.27C150.088 156.35 150.258 156.511 150.35 156.717C150.442 156.923 150.448 157.157 150.367 157.367C150.286 157.578 150.125 157.748 149.919 157.839C148.702 158.382 146.598 158.933 144.162 159.571C140.662 160.487 135.866 161.744 134.755 162.946C134.598 163.115 134.529 163.515 134.569 164.015C134.697 165.599 135.771 167.641 136.404 168.136C136.543 168.245 136.645 168.394 136.696 168.564C136.746 168.734 136.742 168.915 136.684 169.082C136.626 169.25 136.517 169.395 136.373 169.497C136.229 169.6 136.056 169.655 135.879 169.655L135.881 169.66Z" fill="#5D9BFC" fill-opacity="0.5"/>
<path d="M133.712 162.219C133.6 162.218 133.488 162.196 133.385 162.153C133.281 162.109 133.187 162.046 133.107 161.966C131.401 160.236 130.723 158.542 131.093 156.934C131.886 153.479 137.251 151.578 141.167 150.189C141.856 149.944 142.488 149.721 143.017 149.514C143.371 149.375 143.948 149.198 144.631 148.992C145.796 148.637 148.219 147.9 148.67 147.456C148.749 147.377 148.844 147.315 148.947 147.273C149.051 147.231 149.162 147.21 149.273 147.211C149.385 147.212 149.496 147.235 149.599 147.278C149.701 147.321 149.795 147.385 149.873 147.464C149.952 147.544 150.014 147.638 150.056 147.741C150.098 147.845 150.119 147.955 150.118 148.067C150.118 148.179 150.095 148.289 150.051 148.392C150.008 148.495 149.944 148.588 149.865 148.666C149.171 149.351 147.387 149.931 145.126 150.617C144.484 150.812 143.931 150.989 143.637 151.095C143.092 151.309 142.442 151.539 141.733 151.79C138.382 152.977 133.335 154.766 132.75 157.313C132.517 158.319 133.044 159.483 134.317 160.772C134.434 160.892 134.513 161.043 134.545 161.207C134.576 161.372 134.558 161.542 134.494 161.696C134.429 161.85 134.32 161.982 134.181 162.075C134.042 162.168 133.878 162.218 133.711 162.219H133.712Z" fill="#5D9BFC" fill-opacity="0.5"/>
<path d="M182.244 167.541C182.151 167.541 182.058 167.525 181.969 167.494C179.586 166.685 177.688 165.791 175.961 164.682C170.427 161.114 165.176 153.602 161.703 148.629L161.079 147.737C158.978 144.713 157.318 142.324 153.77 141.414C150.479 140.579 146.487 141.022 142.963 141.414C142.096 141.511 141.247 141.6 140.43 141.678C139.838 141.732 139.168 141.751 138.457 141.769C136.508 141.823 134.083 141.892 132.784 142.764C130.853 144.066 131.077 146.245 133.528 150.07C133.699 150.353 133.856 150.645 133.997 150.944C134.254 151.465 134.684 152.337 135.036 152.475C135.142 152.514 135.239 152.574 135.322 152.651C135.404 152.728 135.471 152.821 135.517 152.924C135.563 153.027 135.589 153.138 135.591 153.251C135.594 153.364 135.574 153.476 135.533 153.582C135.492 153.687 135.43 153.783 135.351 153.864C135.273 153.945 135.178 154.009 135.074 154.054C134.97 154.098 134.859 154.121 134.746 154.122C134.632 154.122 134.52 154.1 134.416 154.057C133.45 153.685 132.906 152.579 132.471 151.696C132.337 151.426 132.216 151.175 132.099 150.985C130.898 149.111 127.708 144.129 131.84 141.355C133.547 140.207 136.132 140.135 138.414 140.072C139.099 140.053 139.745 140.035 140.275 139.986C141.081 139.914 141.919 139.821 142.775 139.726C146.442 139.319 150.593 138.859 154.189 139.77C158.351 140.827 160.355 143.709 162.477 146.762L163.097 147.651C166.496 152.514 171.631 159.863 176.884 163.251C178.481 164.281 180.271 165.11 182.518 165.88C182.709 165.945 182.871 166.075 182.975 166.248C183.079 166.421 183.118 166.625 183.085 166.824C183.052 167.023 182.95 167.203 182.796 167.334C182.642 167.464 182.446 167.535 182.244 167.535V167.541Z" fill="#5D9BFC" fill-opacity="0.5"/>
<path d="M143.473 150.678C142.001 150.678 140.484 150.418 139.006 150.165C137.884 149.952 136.75 149.803 135.611 149.719C135.499 149.713 135.39 149.686 135.289 149.638C135.188 149.59 135.098 149.522 135.023 149.439C134.948 149.356 134.89 149.26 134.853 149.154C134.815 149.049 134.799 148.938 134.805 148.826C134.811 148.715 134.838 148.606 134.886 148.505C134.934 148.404 135.002 148.314 135.085 148.239C135.168 148.164 135.265 148.106 135.37 148.069C135.475 148.032 135.587 148.015 135.698 148.021C136.905 148.111 138.106 148.27 139.294 148.497C140.999 148.789 142.764 149.092 144.32 148.949C144.433 148.936 144.547 148.946 144.655 148.978C144.764 149.01 144.865 149.063 144.953 149.134C145.041 149.206 145.114 149.294 145.167 149.394C145.22 149.494 145.253 149.604 145.263 149.716C145.273 149.829 145.261 149.943 145.227 150.05C145.192 150.158 145.137 150.258 145.063 150.344C144.99 150.431 144.9 150.501 144.799 150.552C144.698 150.603 144.587 150.633 144.474 150.641C144.139 150.665 143.801 150.678 143.473 150.678Z" fill="#5D9BFC" fill-opacity="0.5"/>
<path d="M177.651 165.227C177.591 165.227 177.532 165.221 177.474 165.209C177.253 165.162 177.06 165.029 176.937 164.84C176.814 164.651 176.772 164.421 176.819 164.201C176.933 163.639 177.25 163.139 177.71 162.797C177.792 162.726 177.883 162.646 177.982 162.55C178.143 162.392 178.36 162.304 178.586 162.307C178.812 162.309 179.027 162.401 179.185 162.562C179.343 162.723 179.431 162.94 179.429 163.165C179.426 163.391 179.334 163.606 179.173 163.764C179.049 163.885 178.933 163.987 178.827 164.078C178.563 164.309 178.529 164.338 178.483 164.554C178.442 164.745 178.337 164.915 178.186 165.038C178.035 165.16 177.846 165.227 177.651 165.227Z" fill="#5D9BFC" fill-opacity="0.5"/>
</svg>
