<svg width="32" height="30" viewBox="0 0 32 30" fill="none" xmlns="http://www.w3.org/2000/svg">
<path d="M31.5455 24.0259C31.5455 25.1727 30.9066 27.3813 29.4726 28.5944C29.1855 28.8153 28.8968 28.6906 29.023 28.3688C29.441 27.3466 30.3986 24.9819 29.949 24.4376C29.6335 24.0243 28.3241 24.0543 27.2072 24.1505C26.6961 24.2152 26.2497 24.2451 25.901 24.3161C25.5808 24.343 25.5145 24.059 25.8364 23.8381C26.2497 23.5463 26.6961 23.3254 27.2088 23.163C29.023 22.6203 31.1211 22.9468 31.4208 23.2939C31.4776 23.3602 31.547 23.5463 31.547 24.0243L31.5455 24.0259ZM28.515 26.0672C28.0985 26.3854 27.661 26.6753 27.2057 26.9348C23.8581 28.9462 19.5231 30 15.7559 30C9.69343 30 4.27144 27.7646 0.157223 24.0243C-0.194568 23.7372 0.0972765 23.3207 0.509013 23.5463C4.94189 26.1335 10.4286 27.6984 16.1093 27.6984C19.6824 27.6984 23.5363 27.0295 27.2072 25.5908C27.4628 25.4946 27.7499 25.3636 28.0007 25.2721C28.5797 25.0118 29.0892 25.6555 28.515 26.0672ZM18.7816 8.66698C18.7816 7.02477 18.8463 6.05774 18.302 5.22795C17.8193 4.54488 16.988 4.13472 15.8285 4.1994C14.5696 4.26881 13.2176 5.09386 12.8722 6.60672C12.8059 6.95378 12.6024 7.29453 12.1844 7.36867L8.34148 6.87963C8.06699 6.81653 7.65052 6.60672 7.78619 6.05774C8.61124 1.71636 12.3216 0.203502 15.8285 0H16.6535C18.5781 0 21.0501 0.55056 22.6324 1.99401C24.5522 3.78609 24.3487 6.19341 24.3487 8.80896V15.0039C24.3487 16.8623 25.1012 17.6858 25.86 18.6544C26.0651 18.9998 26.1345 19.4068 25.789 19.6876C25.0318 20.3739 23.5899 21.6107 22.7649 22.2969C22.4904 22.5067 21.9951 22.5288 21.8026 22.3679C20.5879 21.3504 20.2913 20.7856 19.5388 19.7523C18.2295 21.1264 17.1315 21.8852 15.8237 22.2969C14.904 22.5303 13.9582 22.6448 13.0094 22.6376C9.71236 22.6376 7.09996 20.5821 7.09996 16.5168C7.09996 13.2844 8.81947 11.0869 11.3593 10.0473C13.8991 9.00615 17.5906 8.67487 18.78 8.66856L18.7816 8.66698ZM18.0275 16.8575C18.8479 15.4819 18.78 14.3556 18.78 11.8331C17.7531 11.8331 16.7198 11.9041 15.8285 12.1139C14.1799 12.5919 12.8722 13.6299 12.8722 15.829C12.8722 17.5485 13.7666 18.719 15.2779 18.719C15.4861 18.719 15.6691 18.6938 15.8285 18.6481C16.8854 18.3546 17.5448 17.8246 18.0275 16.8575Z" fill="#F45D2D"/>
</svg>
