<svg width="25" height="30" viewBox="0 0 25 30" fill="none" xmlns="http://www.w3.org/2000/svg">
<path d="M12.4092 8.6197C11.2242 8.6197 9.38992 7.27236 7.4582 7.32106C4.90963 7.35353 2.57208 8.79826 1.25721 11.0871C-1.38876 15.681 0.575428 22.4664 3.15647 26.2C4.42264 28.0181 5.91607 30.0634 7.89649 29.9985C9.79574 29.9173 10.51 28.7648 12.8151 28.7648C15.1039 28.7648 15.7532 29.9985 17.7661 29.9498C19.8115 29.9173 21.1101 28.0992 22.36 26.2649C23.8048 24.1546 24.4054 22.1093 24.4379 21.9957C24.3892 21.9794 20.4608 20.4698 20.4121 15.9245C20.3796 12.126 23.5126 10.3079 23.6587 10.2268C21.8731 7.61325 19.1297 7.32106 18.1719 7.25613C15.6721 7.06133 13.578 8.6197 12.4092 8.6197ZM16.6298 4.78872C17.685 3.52255 18.383 1.75316 18.1882 0C16.6785 0.0649318 14.8604 1.00644 13.7728 2.27261C12.7988 3.39269 11.9547 5.19454 12.182 6.91524C13.854 7.0451 15.5747 6.05489 16.6298 4.78872Z" fill="#111111"/>
</svg>
