<svg width="102" height="102" viewBox="0 0 102 102" fill="none" xmlns="http://www.w3.org/2000/svg">
<g filter="url(#filter0_d_199_738)">
<circle cx="51" cy="47" r="31" fill="#5D9BFC"/>
</g>
<path fill-rule="evenodd" clip-rule="evenodd" d="M39 47C39 40.376 44.364 35 51 35C57.624 35 63 40.376 63 47C63 53.636 57.624 59 51 59C44.364 59 39 53.636 39 47ZM53.6759 49.196L55.6199 43.052C55.7519 42.632 55.3679 42.236 54.9479 42.368L48.8039 44.288C48.5519 44.372 48.3479 44.564 48.2759 44.816L46.3559 50.972C46.2239 51.38 46.6199 51.776 47.0279 51.644L53.1479 49.724C53.3999 49.652 53.6039 49.448 53.6759 49.196Z" fill="white"/>
<defs>
<filter id="filter0_d_199_738" x="0" y="0" width="102" height="102" filterUnits="userSpaceOnUse" color-interpolation-filters="sRGB">
<feFlood flood-opacity="0" result="BackgroundImageFix"/>
<feColorMatrix in="SourceAlpha" type="matrix" values="0 0 0 0 0 0 0 0 0 0 0 0 0 0 0 0 0 0 127 0" result="hardAlpha"/>
<feOffset dy="4"/>
<feGaussianBlur stdDeviation="10"/>
<feComposite in2="hardAlpha" operator="out"/>
<feColorMatrix type="matrix" values="0 0 0 0 0.364706 0 0 0 0 0.607843 0 0 0 0 0.988235 0 0 0 0.25 0"/>
<feBlend mode="normal" in2="BackgroundImageFix" result="effect1_dropShadow_199_738"/>
<feBlend mode="normal" in="SourceGraphic" in2="effect1_dropShadow_199_738" result="shape"/>
</filter>
</defs>
</svg>
