<svg width="21" height="16" viewBox="0 0 21 16" fill="none" xmlns="http://www.w3.org/2000/svg">
<path d="M15.7754 7.08567C17.0526 6.90622 18.036 5.81119 18.0387 4.48452C18.0387 3.17707 17.0856 2.09303 15.8358 1.88794" stroke="#AAAAAA" stroke-width="1.5" stroke-linecap="round" stroke-linejoin="round"/>
<path d="M17.4607 10.1562C18.6976 10.3412 19.561 10.7743 19.561 11.667C19.561 12.2813 19.1545 12.6805 18.4971 12.9314" stroke="#AAAAAA" stroke-width="1.5" stroke-linecap="round" stroke-linejoin="round"/>
<path fill-rule="evenodd" clip-rule="evenodd" d="M10.2809 10.5347C7.33821 10.5347 4.82495 10.9806 4.82495 12.7614C4.82495 14.5412 7.32265 14.9999 10.2809 14.9999C13.2235 14.9999 15.7359 14.5586 15.7359 12.7769C15.7359 10.9952 13.2391 10.5347 10.2809 10.5347Z" stroke="#AAAAAA" stroke-width="1.5" stroke-linecap="round" stroke-linejoin="round"/>
<path fill-rule="evenodd" clip-rule="evenodd" d="M10.281 7.99318C12.212 7.99318 13.7776 6.42846 13.7776 4.49659C13.7776 2.56564 12.212 1 10.281 1C8.35009 1 6.78445 2.56564 6.78445 4.49659C6.77713 6.42113 8.33086 7.98677 10.2554 7.99318H10.281Z" stroke="#AAAAAA" stroke-width="1.5" stroke-linecap="round" stroke-linejoin="round"/>
<path d="M4.78577 7.08567C3.50762 6.90622 2.52521 5.81119 2.52246 4.48452C2.52246 3.17707 3.47558 2.09303 4.72534 1.88794" stroke="#AAAAAA" stroke-width="1.5" stroke-linecap="round" stroke-linejoin="round"/>
<path d="M3.10033 10.1562C1.86339 10.3412 1 10.7743 1 11.667C1 12.2813 1.40652 12.6805 2.0639 12.9314" stroke="#AAAAAA" stroke-width="1.5" stroke-linecap="round" stroke-linejoin="round"/>
</svg>
