<svg width="39" height="37" viewBox="0 0 39 37" fill="none" xmlns="http://www.w3.org/2000/svg">
<path d="M11.7811 9.97076C11.4987 8.13299 11.3575 7.21411 11.7049 6.3995C12.0524 5.58489 12.8232 5.02755 14.3649 3.91285L15.5168 3.08C17.4346 1.69333 18.3936 1 19.5 1C20.6064 1 21.5654 1.69333 23.4832 3.08L24.6351 3.91285C26.1768 5.02755 26.9476 5.58489 27.2951 6.3995C27.6425 7.21411 27.5013 8.13299 27.2189 9.97076L26.9781 11.5379C26.5777 14.1431 26.3775 15.4458 25.4432 16.2229C24.5089 17 23.1429 17 20.4111 17H18.5889C15.8571 17 14.4911 17 13.5568 16.2229C12.6225 15.4458 12.4223 14.1431 12.0219 11.5379L11.7811 9.97076Z" stroke="#AAAAAA" stroke-width="1.5" stroke-linejoin="round"/>
<path d="M19.5 13.8002L19.5 11.4002" stroke="#AAAAAA" stroke-width="1.5" stroke-linecap="round"/>
<path d="M8.19 26.965V36H6.708V32.048H2.457V36H0.975V26.965H2.457V30.839H6.708V26.965H8.19ZM13.248 36.117C12.572 36.117 11.961 35.9653 11.415 35.662C10.869 35.35 10.44 34.9167 10.128 34.362C9.81602 33.7987 9.66002 33.1487 9.66002 32.412C9.66002 31.684 9.82035 31.0383 10.141 30.475C10.4617 29.9117 10.8993 29.4783 11.454 29.175C12.0087 28.8717 12.6283 28.72 13.313 28.72C13.9977 28.72 14.6173 28.8717 15.172 29.175C15.7267 29.4783 16.1643 29.9117 16.485 30.475C16.8057 31.0383 16.966 31.684 16.966 32.412C16.966 33.14 16.8013 33.7857 16.472 34.349C16.1427 34.9123 15.692 35.35 15.12 35.662C14.5567 35.9653 13.9327 36.117 13.248 36.117ZM13.248 34.83C13.6293 34.83 13.9847 34.739 14.314 34.557C14.652 34.375 14.925 34.102 15.133 33.738C15.341 33.374 15.445 32.932 15.445 32.412C15.445 31.892 15.3453 31.4543 15.146 31.099C14.9467 30.735 14.6823 30.462 14.353 30.28C14.0237 30.098 13.6683 30.007 13.287 30.007C12.9057 30.007 12.5503 30.098 12.221 30.28C11.9003 30.462 11.6447 30.735 11.454 31.099C11.2633 31.4543 11.168 31.892 11.168 32.412C11.168 33.1833 11.363 33.7813 11.753 34.206C12.1517 34.622 12.65 34.83 13.248 34.83ZM27.1021 28.72C27.6654 28.72 28.1681 28.837 28.6101 29.071C29.0607 29.305 29.4117 29.6517 29.6631 30.111C29.9231 30.5703 30.0531 31.125 30.0531 31.775V36H28.5841V31.996C28.5841 31.3547 28.4237 30.865 28.1031 30.527C27.7824 30.1803 27.3447 30.007 26.7901 30.007C26.2354 30.007 25.7934 30.1803 25.4641 30.527C25.1434 30.865 24.9831 31.3547 24.9831 31.996V36H23.5141V31.996C23.5141 31.3547 23.3537 30.865 23.0331 30.527C22.7124 30.1803 22.2747 30.007 21.7201 30.007C21.1654 30.007 20.7234 30.1803 20.3941 30.527C20.0734 30.865 19.9131 31.3547 19.9131 31.996V36H18.4311V28.837H19.9131V29.656C20.1557 29.3613 20.4634 29.1317 20.8361 28.967C21.2087 28.8023 21.6074 28.72 22.0321 28.72C22.6041 28.72 23.1154 28.8413 23.5661 29.084C24.0167 29.3267 24.3634 29.6777 24.6061 30.137C24.8227 29.7037 25.1607 29.3613 25.6201 29.11C26.0794 28.85 26.5734 28.72 27.1021 28.72ZM38.5039 32.243C38.5039 32.5117 38.4865 32.7543 38.4519 32.971H32.9789C33.0222 33.543 33.2345 34.0023 33.6159 34.349C33.9972 34.6957 34.4652 34.869 35.0199 34.869C35.8172 34.869 36.3805 34.5353 36.7099 33.868H38.3089C38.0922 34.5267 37.6979 35.0683 37.1259 35.493C36.5625 35.909 35.8605 36.117 35.0199 36.117C34.3352 36.117 33.7199 35.9653 33.1739 35.662C32.6365 35.35 32.2119 34.9167 31.8999 34.362C31.5965 33.7987 31.4449 33.1487 31.4449 32.412C31.4449 31.6753 31.5922 31.0297 31.8869 30.475C32.1902 29.9117 32.6105 29.4783 33.1479 29.175C33.6939 28.8717 34.3179 28.72 35.0199 28.72C35.6959 28.72 36.2982 28.8673 36.8269 29.162C37.3555 29.4567 37.7672 29.8727 38.0619 30.41C38.3565 30.9387 38.5039 31.5497 38.5039 32.243ZM36.9569 31.775C36.9482 31.229 36.7532 30.7913 36.3719 30.462C35.9905 30.1327 35.5182 29.968 34.9549 29.968C34.4435 29.968 34.0059 30.1327 33.6419 30.462C33.2779 30.7827 33.0612 31.2203 32.9919 31.775H36.9569Z" fill="#AAAAAA"/>
</svg>
