<svg width="50" height="50" viewBox="0 0 50 50" fill="none" xmlns="http://www.w3.org/2000/svg">
<rect x="0.5" y="0.5" width="49" height="49" rx="24.5" stroke="#EEEEEE"/>
<path fill-rule="evenodd" clip-rule="evenodd" d="M18.625 23.7383C18.625 20.2884 21.5079 17.5 24.9951 17.5C28.4921 17.5 31.375 20.2884 31.375 23.7383C31.375 25.4768 30.7428 27.0907 29.7021 28.4587C28.5541 29.9676 27.1391 31.2823 25.5464 32.3143C25.1819 32.5528 24.8529 32.5708 24.4528 32.3143C22.8511 31.2823 21.4361 29.9676 20.2979 28.4587C19.2565 27.0907 18.625 25.4768 18.625 23.7383ZM22.8957 23.9326C22.8957 25.0883 23.8387 25.9973 24.9951 25.9973C26.1522 25.9973 27.1043 25.0883 27.1043 23.9326C27.1043 22.7859 26.1522 21.8326 24.9951 21.8326C23.8387 21.8326 22.8957 22.7859 22.8957 23.9326Z" fill="#5D9BFC"/>
</svg>
