<svg width="26" height="30" viewBox="0 0 26 30" fill="none" xmlns="http://www.w3.org/2000/svg">
<path d="M24.6724 9.4034C25.3866 10.6808 25.4795 12.3269 25.1079 14.2328C24.0337 19.7576 20.3524 21.665 15.6522 21.665H14.9264C14.6482 21.6654 14.3794 21.765 14.1681 21.946C13.9568 22.1269 13.817 22.3773 13.7738 22.6521L13.7158 22.9714L12.8013 28.7676L12.7548 29.0144C12.7116 29.289 12.5718 29.5392 12.3605 29.7199C12.1492 29.9006 11.8803 29.9999 11.6023 30H6.7496C6.64834 30 6.54829 29.978 6.45632 29.9356C6.36436 29.8932 6.28267 29.8314 6.21687 29.7545C6.15107 29.6775 6.10273 29.5872 6.07517 29.4897C6.0476 29.3923 6.04147 29.29 6.05719 29.19L6.31122 27.5802H8.51473L9.89374 18.8416H11.9042C18.6947 18.8416 23.154 15.6438 24.6724 9.4034ZM20.3757 2.01481C21.4818 3.27479 21.8026 4.64218 21.4673 6.78328C21.4397 6.96182 21.4092 7.13166 21.3773 7.30585C20.3104 12.7827 16.8933 15.2112 11.28 15.2112H8.54522C7.63072 15.2112 6.84105 15.8122 6.57977 16.6657L6.55944 16.6628L5.20947 25.2185H0.0737415C0.0629377 25.2184 0.0522741 25.216 0.0424993 25.2114C0.0327244 25.2068 0.0240753 25.2001 0.0171588 25.1918C0.0102424 25.1835 0.00522617 25.1738 0.00246266 25.1634C-0.000300858 25.1529 -0.000744573 25.142 0.00116206 25.1314L3.77239 1.16563C3.82324 0.840969 3.98835 0.545142 4.23799 0.331436C4.48762 0.117729 4.80537 0.000193005 5.13398 0H13.8087C16.9775 0 19.2042 0.680795 20.3757 2.01481Z" fill="#202D5E"/>
</svg>
