<svg width="270" height="373" viewBox="0 0 270 373" fill="none" xmlns="http://www.w3.org/2000/svg">
<path fill-rule="evenodd" clip-rule="evenodd" d="M0 40C0 21.1438 0 11.7157 5.85786 5.85786C11.7157 0 21.1438 0 40 0H230C248.856 0 258.284 0 264.142 5.85786C270 11.7157 270 21.1438 270 40V130C267.348 130 264.804 131.054 262.929 132.929C261.054 134.804 260 137.348 260 140C260 142.652 261.054 145.196 262.929 147.071C264.804 148.946 267.348 150 270 150V245C267.348 245 264.804 246.054 262.929 247.929C261.054 249.804 260 252.348 260 255C260 257.652 261.054 260.196 262.929 262.071C264.804 263.946 267.348 265 270 265V333C270 351.856 270 361.284 264.142 367.142C258.284 373 248.856 373 230 373H40C21.1438 373 11.7157 373 5.85786 367.142C0 361.284 0 351.856 0 333V265C2.65216 265 5.1957 263.946 7.07107 262.071C8.94643 260.196 10 257.652 10 255C10 252.348 8.94643 249.804 7.07107 247.929C5.1957 246.054 2.65217 245 1.90735e-06 245L0 255V150C2.65216 150 5.1957 148.946 7.07107 147.071C8.94643 145.196 10 142.652 10 140C10 137.348 8.94643 134.804 7.07107 132.929C5.1957 131.054 2.65217 130 1.90735e-06 130L0 140V40ZM18.5294 140H15V139H18.5294V140ZM32.6471 140H25.5882V139H32.6471V140ZM46.7647 140H39.7059V139H46.7647V140ZM60.8824 140H53.8235V139H60.8824V140ZM75 140H67.9412V139H75V140ZM89.1176 140H82.0588V139H89.1176V140ZM103.235 140H96.1765V139H103.235V140ZM117.353 140H110.294V139H117.353V140ZM131.471 140H124.412V139H131.471V140ZM145.588 140H138.529V139H145.588V140ZM159.706 140H152.647V139H159.706V140ZM173.824 140H166.765V139H173.824V140ZM187.941 140H180.882V139H187.941V140ZM202.059 140H195V139H202.059V140ZM216.176 140H209.118V139H216.176V140ZM230.294 140H223.235V139H230.294V140ZM244.412 140H237.353V139H244.412V140ZM255 140H251.471V139H255V140ZM15 255H18.5294V254H15V255ZM25.5882 255H32.6471V254H25.5882V255ZM39.7059 255H46.7647V254H39.7059V255ZM53.8235 255H60.8824V254H53.8235V255ZM67.9412 255H75V254H67.9412V255ZM82.0588 255H89.1176V254H82.0588V255ZM96.1765 255H103.235V254H96.1765V255ZM110.294 255H117.353V254H110.294V255ZM124.412 255H131.471V254H124.412V255ZM138.529 255H145.588V254H138.529V255ZM152.647 255H159.706V254H152.647V255ZM166.765 255H173.824V254H166.765V255ZM180.882 255H187.941V254H180.882V255ZM195 255H202.059V254H195V255ZM209.118 255H216.176V254H209.118V255ZM223.235 255H230.294V254H223.235V255ZM237.353 255H244.412V254H237.353V255ZM251.471 255H255V254H251.471V255Z" fill="#F8F8F8"/>
</svg>
