<svg width="39" height="33" viewBox="0 0 39 33" fill="none" xmlns="http://www.w3.org/2000/svg">
<path d="M20.9798 1.20024V3.13624" stroke="#AAAAAA" stroke-width="1.5" stroke-linecap="round" stroke-linejoin="round"/>
<path d="M20.9798 12.0081V13.6273" stroke="#AAAAAA" stroke-width="1.5" stroke-linecap="round" stroke-linejoin="round"/>
<path d="M20.9798 9.25968V5.40288" stroke="#AAAAAA" stroke-width="1.5" stroke-linecap="round" stroke-linejoin="round"/>
<path fill-rule="evenodd" clip-rule="evenodd" d="M24.8617 13.8C26.3194 13.8 27.5 12.634 27.5 11.1945V9.12051C26.5355 9.12051 25.7587 8.35337 25.7587 7.40082C25.7587 6.44828 26.5355 5.68031 27.5 5.68031L27.4992 3.60548C27.4992 2.16596 26.3177 1 24.8609 1H14.1391C12.6823 1 11.5008 2.16596 11.5008 3.60548L11.5 5.74788C12.4645 5.74788 13.2413 6.44828 13.2413 7.40082C13.2413 8.35337 12.4645 9.12051 11.5 9.12051V11.1945C11.5 12.634 12.6806 13.8 14.1383 13.8H24.8617Z" stroke="#AAAAAA" stroke-width="1.5" stroke-linecap="round" stroke-linejoin="round"/>
<path d="M6.812 23.765V24.974H4.407V32.8H2.925V24.974H0.507V23.765H6.812ZM9.06689 24.688C8.79822 24.688 8.57289 24.597 8.39089 24.415C8.20889 24.233 8.11789 24.0077 8.11789 23.739C8.11789 23.4703 8.20889 23.245 8.39089 23.063C8.57289 22.881 8.79822 22.79 9.06689 22.79C9.32689 22.79 9.54789 22.881 9.72989 23.063C9.91189 23.245 10.0029 23.4703 10.0029 23.739C10.0029 24.0077 9.91189 24.233 9.72989 24.415C9.54789 24.597 9.32689 24.688 9.06689 24.688ZM9.79489 25.637V32.8H8.31289V25.637H9.79489ZM11.2466 29.212C11.2466 28.4753 11.394 27.8297 11.6886 27.275C11.992 26.7117 12.408 26.2783 12.9366 25.975C13.4653 25.6717 14.072 25.52 14.7566 25.52C15.6233 25.52 16.3383 25.728 16.9016 26.144C17.4736 26.5513 17.8593 27.1363 18.0586 27.899H16.4596C16.3296 27.5437 16.1216 27.2663 15.8356 27.067C15.5496 26.8677 15.19 26.768 14.7566 26.768C14.15 26.768 13.6646 26.9847 13.3006 27.418C12.9453 27.8427 12.7676 28.4407 12.7676 29.212C12.7676 29.9833 12.9453 30.5857 13.3006 31.019C13.6646 31.4523 14.15 31.669 14.7566 31.669C15.6146 31.669 16.1823 31.292 16.4596 30.538H18.0586C17.8506 31.266 17.4606 31.8467 16.8886 32.28C16.3166 32.7047 15.606 32.917 14.7566 32.917C14.072 32.917 13.4653 32.7653 12.9366 32.462C12.408 32.15 11.992 31.7167 11.6886 31.162C11.394 30.5987 11.2466 29.9487 11.2466 29.212ZM22.3695 29.225L25.6715 32.8H23.6695L21.0175 29.719V32.8H19.5355V23.18H21.0175V28.77L23.6175 25.637H25.6715L22.3695 29.225ZM33.2988 29.043C33.2988 29.3117 33.2815 29.5543 33.2468 29.771H27.7738C27.8171 30.343 28.0295 30.8023 28.4108 31.149C28.7921 31.4957 29.2601 31.669 29.8148 31.669C30.6121 31.669 31.1755 31.3353 31.5048 30.668H33.1038C32.8871 31.3267 32.4928 31.8683 31.9208 32.293C31.3575 32.709 30.6555 32.917 29.8148 32.917C29.1301 32.917 28.5148 32.7653 27.9688 32.462C27.4315 32.15 27.0068 31.7167 26.6948 31.162C26.3915 30.5987 26.2398 29.9487 26.2398 29.212C26.2398 28.4753 26.3871 27.8297 26.6818 27.275C26.9851 26.7117 27.4055 26.2783 27.9428 25.975C28.4888 25.6717 29.1128 25.52 29.8148 25.52C30.4908 25.52 31.0931 25.6673 31.6218 25.962C32.1505 26.2567 32.5621 26.6727 32.8568 27.21C33.1515 27.7387 33.2988 28.3497 33.2988 29.043ZM31.7518 28.575C31.7431 28.029 31.5481 27.5913 31.1668 27.262C30.7855 26.9327 30.3131 26.768 29.7498 26.768C29.2385 26.768 28.8008 26.9327 28.4368 27.262C28.0728 27.5827 27.8561 28.0203 27.7868 28.575H31.7518ZM36.4862 26.846V30.811C36.4862 31.0797 36.5469 31.2747 36.6682 31.396C36.7982 31.5087 37.0149 31.565 37.3182 31.565H38.2282V32.8H37.0582C36.3909 32.8 35.8796 32.644 35.5242 32.332C35.1689 32.02 34.9912 31.513 34.9912 30.811V26.846H34.1462V25.637H34.9912V23.856H36.4862V25.637H38.2282V26.846H36.4862Z" fill="#AAAAAA"/>
</svg>
