<svg width="44" height="14" viewBox="0 0 44 14" fill="none" xmlns="http://www.w3.org/2000/svg">
<path d="M40.0912 13.7979L39.6853 11.7683H35.1497L34.4281 13.7835L30.7928 13.7907C32.5234 9.62887 34.2578 5.46855 35.9959 1.30979C36.2918 0.604381 36.8168 0.245362 37.5907 0.24897C38.1825 0.254382 39.1477 0.254381 40.4881 0.250773L43.299 13.7925L40.0912 13.7979ZM36.1709 8.98814H39.0936L38.0021 3.90051L36.1709 8.98814ZM12.7371 0.247165L16.3923 0.250773L10.7418 13.7997L7.0415 13.7961C6.11102 10.2173 5.19211 6.63552 4.28479 3.05077C4.10438 2.33634 3.74716 1.8366 3.05979 1.60026C2.4482 1.38918 1.42887 1.06443 0 0.622423V0.252578H5.83995C6.85026 0.252578 7.44021 0.741495 7.62964 1.74459C7.82088 2.74948 8.30077 5.30773 9.07294 9.41933L12.7371 0.247165ZM21.4149 0.250773L18.5247 13.7961L15.0464 13.7925L17.933 0.247165L21.4149 0.250773ZM28.4691 0C29.5101 0 30.8217 0.324743 31.5758 0.622423L30.966 3.43144C30.284 3.15722 29.1619 2.78737 28.2183 2.8C26.8472 2.82345 25.9992 3.39897 25.9992 3.95103C25.9992 4.84949 27.4714 5.30232 28.9869 6.28376C30.717 7.40232 30.9443 8.40722 30.9227 9.49871C30.8992 11.7647 28.9869 14 24.9528 14C23.1126 13.9729 22.4487 13.8178 20.9477 13.2856L21.5827 10.3539C23.1108 10.9943 23.7585 11.1982 25.0647 11.1982C26.2608 11.1982 27.2874 10.7147 27.2964 9.87216C27.3036 9.2732 26.9356 8.97552 25.5933 8.23583C24.251 7.49433 22.3675 6.46778 22.3928 4.40747C22.4235 1.76985 24.9222 0 28.4709 0H28.4691Z" fill="#1534CC"/>
</svg>
