<svg width="15" height="18" viewBox="0 0 15 18" fill="none" xmlns="http://www.w3.org/2000/svg">
<path d="M7.6142 5.17182C6.90319 5.17182 5.80258 4.36342 4.64355 4.39264C3.11441 4.41212 1.71188 5.27896 0.92296 6.65226C-0.664623 9.40862 0.51389 13.4798 2.06251 15.72C2.82221 16.8108 3.71827 18.0381 4.90653 17.9991C6.04608 17.9504 6.47465 17.2589 7.85769 17.2589C9.231 17.2589 9.62059 17.9991 10.8283 17.9699C12.0555 17.9504 12.8347 16.8595 13.5847 15.7589C14.4515 14.4928 14.8119 13.2656 14.8314 13.1974C14.8021 13.1876 12.4451 12.2819 12.4159 9.55472C12.3964 7.27561 14.2762 6.18476 14.3639 6.13606C13.2925 4.56795 11.6465 4.39264 11.0718 4.35368C9.57189 4.2368 8.31546 5.17182 7.6142 5.17182ZM10.1465 2.87323C10.7796 2.11353 11.1984 1.0519 11.0816 0C10.1758 0.0389591 9.0849 0.603867 8.43234 1.36357C7.84795 2.03561 7.34148 3.11673 7.47784 4.14914C8.48104 4.22706 9.51345 3.63294 10.1465 2.87323Z" fill="white"/>
</svg>
