<svg width="153" height="130" viewBox="0 0 153 130" fill="none" xmlns="http://www.w3.org/2000/svg">
<path d="M72.887 78.0603L61.082 75.7111L61.2678 74.8912L71.7043 76.9661L72.887 78.0603Z" fill="white"/>
<path d="M129.141 96.6955C131.108 96.6955 132.703 95.1005 132.703 93.133C132.703 91.1655 131.108 89.5706 129.141 89.5706C127.173 89.5706 125.578 91.1655 125.578 93.133C125.578 95.1005 127.173 96.6955 129.141 96.6955Z" fill="#FFE9A1"/>
<path d="M83.3378 5.08924C84.7432 5.08924 85.8825 3.94997 85.8825 2.54462C85.8825 1.13926 84.7432 0 83.3378 0C81.9325 0 80.7932 1.13926 80.7932 2.54462C80.7932 3.94997 81.9325 5.08924 83.3378 5.08924Z" fill="#5D9BFC"/>
<path d="M27.8649 83.9724C29.2703 83.9724 30.4095 82.8332 30.4095 81.4278C30.4095 80.0224 29.2703 78.8832 27.8649 78.8832C26.4596 78.8832 25.3203 80.0224 25.3203 81.4278C25.3203 82.8332 26.4596 83.9724 27.8649 83.9724Z" fill="#5D9BFC"/>
<path d="M116.927 75.3207C118.332 75.3207 119.471 74.1814 119.471 72.7761C119.471 71.3707 118.332 70.2314 116.927 70.2314C115.521 70.2314 114.382 71.3707 114.382 72.7761C114.382 74.1814 115.521 75.3207 116.927 75.3207Z" fill="#FFE9A1"/>
<path d="M39.5703 109.928C40.9756 109.928 42.1149 108.788 42.1149 107.383C42.1149 105.978 40.9756 104.838 39.5703 104.838C38.1649 104.838 37.0256 105.978 37.0256 107.383C37.0256 108.788 38.1649 109.928 39.5703 109.928Z" fill="#FFE9A1"/>
<path d="M119.98 117.052C121.386 117.052 122.525 115.913 122.525 114.508C122.525 113.103 121.386 111.963 119.98 111.963C118.575 111.963 117.436 113.103 117.436 114.508C117.436 115.913 118.575 117.052 119.98 117.052Z" fill="#E6E6E6"/>
<path d="M97.5876 26.4641C98.9929 26.4641 100.132 25.3249 100.132 23.9195C100.132 22.5141 98.9929 21.3749 97.5876 21.3749C96.1822 21.3749 95.043 22.5141 95.043 23.9195C95.043 25.3249 96.1822 26.4641 97.5876 26.4641Z" fill="#CCCCCC"/>
<path d="M1.40954 54.4429C4.07401 54.6108 6.66078 55.4077 8.9578 56.7683C11.2548 58.1289 13.1967 60.0145 14.6243 62.2706C15.0243 62.9101 15.5466 63.613 15.2696 64.4002C15.1731 64.702 14.9771 64.9622 14.7136 65.1382C14.4501 65.3142 14.1347 65.3956 13.8189 65.3691C13.4252 65.2844 13.0703 65.0724 12.8089 64.766C12.5476 64.4596 12.3943 64.0757 12.3728 63.6735C12.3513 63.2714 12.4626 62.8733 12.6897 62.5407C12.9168 62.2081 13.247 61.9594 13.6294 61.8331C15.4774 61.0448 17.3418 62.2631 18.8471 63.2353C22.2771 65.4507 26.0497 67.4542 30.2058 67.7066C34.0512 67.9402 38.1748 66.4324 40.3136 63.0978C40.6878 62.5144 39.7588 61.9752 39.3864 62.5558C37.2652 65.8629 32.9769 67.0507 29.2484 66.5396C27.0265 66.1889 24.881 65.4605 22.9048 64.3859C21.88 63.854 20.8861 63.2645 19.9122 62.6447C18.9855 61.9981 18.0033 61.435 16.977 60.962C15.2655 60.259 12.9997 60.3139 11.8042 61.9326C10.6889 63.4428 11.5508 65.9569 13.4163 66.3815C13.8255 66.4621 14.2484 66.44 14.6469 66.317C15.0455 66.1941 15.4073 65.9741 15.7 65.6769C15.9926 65.3797 16.2069 65.0146 16.3237 64.6141C16.4405 64.2137 16.4561 63.7906 16.3691 63.3827C16.183 62.4934 15.5134 61.6231 14.995 60.8962C13.4377 58.7054 11.4087 56.8918 9.05745 55.5891C6.70625 54.2864 4.09275 53.5278 1.40947 53.3691C0.718728 53.3349 0.720529 54.4088 1.40947 54.4429L1.40954 54.4429Z" fill="#CCCCCC"/>
<path d="M151.904 86.9485C150.119 85.7991 148.631 84.2429 147.564 82.4076C146.496 80.5723 145.878 78.51 145.761 76.3898C145.731 75.7906 145.641 75.1 146.138 74.6606C146.322 74.4884 146.559 74.3837 146.811 74.3636C147.062 74.3435 147.312 74.4093 147.521 74.5501C147.762 74.7616 147.926 75.0463 147.989 75.3604C148.052 75.6745 148.009 76.0006 147.868 76.2882C147.728 76.5758 147.496 76.8091 147.209 76.9521C146.923 77.0951 146.597 77.1397 146.282 77.0792C144.693 76.9104 143.871 75.3416 143.202 74.0829C141.679 71.2148 139.835 68.361 137.047 66.5747C134.467 64.9219 131.019 64.3706 128.24 65.8575C127.754 66.1176 128.191 66.8521 128.674 66.5933C131.43 65.1187 134.868 65.956 137.259 67.7563C138.667 68.8611 139.874 70.1986 140.83 71.711C141.336 72.4776 141.797 73.2723 142.234 74.0802C142.626 74.8885 143.09 75.6603 143.62 76.3866C144.536 77.5383 146.131 78.3784 147.588 77.7176C147.913 77.5495 148.194 77.3078 148.409 77.0117C148.624 76.7156 148.766 76.3734 148.825 76.0124C148.884 75.6514 148.857 75.2817 148.747 74.9328C148.638 74.5839 148.448 74.2655 148.193 74.003C147.94 73.7884 147.638 73.6398 147.314 73.5707C146.989 73.5016 146.653 73.5141 146.334 73.6071C146.016 73.7001 145.725 73.8706 145.489 74.1034C145.253 74.3362 145.078 74.6241 144.98 74.9411C144.83 75.6865 144.827 76.4539 144.971 77.2005C145.203 79.3258 145.909 81.3718 147.037 83.1879C148.165 85.004 149.686 86.5439 151.488 87.6943C151.955 87.9857 152.37 87.2392 151.904 86.9485L151.904 86.9485Z" fill="#CCCCCC"/>
<path d="M64.0961 16.492C61.9769 16.3585 59.9195 15.7247 58.0926 14.6425C56.2657 13.5603 54.7212 12.0606 53.5858 10.2663C53.2676 9.75761 52.8522 9.19862 53.0725 8.57251C53.1493 8.33243 53.3052 8.1255 53.5148 7.98552C53.7243 7.84553 53.9752 7.78079 54.2264 7.80188C54.5395 7.86929 54.8218 8.03785 55.0296 8.28156C55.2375 8.52528 55.3594 8.83061 55.3765 9.15047C55.3936 9.47032 55.305 9.78693 55.1244 10.0515C54.9438 10.316 54.6812 10.5137 54.377 10.6142C52.9073 11.2412 51.4244 10.2723 50.2271 9.49898C47.4991 7.737 44.4986 6.14354 41.193 5.94274C38.1346 5.75698 34.8549 6.95615 33.1538 9.60838C32.8562 10.0724 33.5951 10.5012 33.8913 10.0394C35.5784 7.40909 38.989 6.46439 41.9545 6.87094C43.7217 7.14981 45.4281 7.72916 46.9999 8.58387C47.8149 9.00688 48.6054 9.47579 49.38 9.96872C50.117 10.483 50.8983 10.9309 51.7145 11.307C53.0758 11.8662 54.8778 11.8225 55.8287 10.5351C56.0304 10.23 56.1579 9.88195 56.201 9.51878C56.2442 9.15561 56.2017 8.78738 56.0771 8.44354C55.9525 8.09969 55.7492 7.78977 55.4834 7.53854C55.2177 7.28731 54.8968 7.10175 54.5465 6.99669C54.221 6.93252 53.8847 6.95013 53.5677 7.04792C53.2507 7.14572 52.9629 7.32065 52.7302 7.55703C52.4974 7.79341 52.327 8.08385 52.2341 8.40232C52.1412 8.72078 52.1288 9.05733 52.198 9.38177C52.4303 10.1057 52.8015 10.7775 53.2909 11.3594C54.5295 13.1018 56.1433 14.5443 58.0133 15.5803C59.8834 16.6164 61.962 17.2198 64.0961 17.3461C64.6455 17.3732 64.6441 16.5191 64.0961 16.492L64.0961 16.492Z" fill="#CCCCCC"/>
<path d="M66.0344 43.5493H63.4897V51.9102H66.0344V43.5493Z" fill="#CCCCCC"/>
<path d="M24.8912 37.7146L26.6597 35.9462L20.8491 30.1356L19.0806 31.904L24.8912 37.7146Z" fill="#B3B3B3"/>
<path d="M96.4371 55.2853L98.2056 57.0537L104.016 51.2431L102.248 49.4747L96.4371 55.2853Z" fill="#B3B3B3"/>
<path d="M24.17 127.552L25.9385 129.321L31.7491 123.51L29.9806 121.742L24.17 127.552Z" fill="#5D9BFC"/>
<path d="M76.6505 124.059C50.0175 124.059 28.3499 102.392 28.3499 75.7585C28.3499 49.1255 50.0175 27.4579 76.6505 27.4579C103.284 27.4579 124.951 49.1255 124.951 75.7585C124.951 102.392 103.284 124.059 76.6505 124.059ZM76.6505 28.4126C50.5439 28.4126 29.3046 49.652 29.3046 75.7585C29.3046 101.865 50.5439 123.104 76.6505 123.104C102.757 123.104 123.996 101.865 123.996 75.7585C123.996 49.652 102.757 28.4126 76.6505 28.4126Z" fill="#5D9BFC"/>
<path d="M70.1268 100.648C69.301 100.648 68.4865 100.456 67.7479 100.087C67.0092 99.7172 66.3668 99.1809 65.8715 98.5201L52.8246 81.1239C52.4054 80.565 52.1005 79.929 51.9271 79.2523C51.7538 78.5756 51.7154 77.8713 51.8142 77.1798C51.913 76.4882 52.1471 75.8229 52.503 75.2218C52.859 74.6207 53.3298 74.0956 53.8887 73.6765C54.4476 73.2574 55.0835 72.9524 55.7603 72.7791C56.437 72.6057 57.1412 72.5674 57.8328 72.6662C58.5243 72.765 59.1896 72.9991 59.7907 73.355C60.3918 73.711 60.9169 74.1818 61.3361 74.7407L69.8718 86.1208L91.7948 53.2368C92.5778 52.0638 93.7946 51.2498 95.1776 50.9736C96.5606 50.6975 97.9967 50.9818 99.1702 51.7641C100.344 52.5464 101.158 53.7627 101.435 55.1455C101.712 56.5284 101.429 57.9646 100.647 59.1386L74.5535 98.2793C74.0815 98.9872 73.4467 99.5716 72.7022 99.9835C71.9577 100.395 71.1253 100.623 70.2749 100.647C70.2255 100.647 70.1761 100.648 70.1268 100.648Z" fill="#5D9BFC"/>
</svg>
