<svg width="17" height="12" viewBox="0 0 17 12" fill="none" xmlns="http://www.w3.org/2000/svg">
<path d="M15.0248 5.23149C15.2442 5.52991 15.3539 5.67913 15.3539 5.9C15.3539 6.12087 15.2442 6.27009 15.0248 6.56851C14.0392 7.90939 11.5219 10.8 8.13848 10.8C4.75503 10.8 2.23781 7.90939 1.25215 6.56851C1.03278 6.27009 0.923096 6.12087 0.923096 5.9C0.923096 5.67913 1.03278 5.52991 1.25215 5.23149C2.23781 3.89061 4.75503 1 8.13848 1C11.5219 1 14.0392 3.89061 15.0248 5.23149Z" stroke="#AAAAAA" stroke-width="1.5"/>
<path d="M10.3034 5.9C10.3034 4.7402 9.33422 3.8 8.13874 3.8C6.94325 3.8 5.97412 4.7402 5.97412 5.9C5.97412 7.0598 6.94325 8 8.13874 8C9.33422 8 10.3034 7.0598 10.3034 5.9Z" stroke="#AAAAAA" stroke-width="1.5"/>
</svg>
