<svg width="18" height="19" viewBox="0 0 18 19" fill="none" xmlns="http://www.w3.org/2000/svg">
<path d="M1.13733 5.45823C2.61823 2.51683 5.66181 0.5 9.18005 0.5C11.6059 0.5 13.6432 1.39185 15.2019 2.84409L12.6205 5.42547C11.6878 4.53367 10.5013 4.07954 9.18005 4.07954C6.83593 4.07954 4.85181 5.66273 4.14415 7.79C3.9641 8.33 3.86183 8.90681 3.86183 9.5C3.86183 10.0932 3.9641 10.67 4.14415 11.21C4.85181 13.3372 6.83593 14.9204 9.18005 14.9204C10.3909 14.9204 11.4219 14.6014 12.2278 14.0614C13.1809 13.4232 13.8151 12.47 14.0237 11.345H9.18005V7.86362H17.6563C17.7628 8.45267 17.8201 9.06638 17.8201 9.70457C17.8201 12.4454 16.8382 14.7527 15.1363 16.3196C13.6473 17.6941 11.6101 18.5 9.18005 18.5C5.66181 18.5 2.61823 16.4832 1.13733 13.5418C0.527796 12.3268 0.180054 10.9522 0.180054 9.5C0.180054 8.04776 0.527796 6.6732 1.13733 5.45823Z" fill="white"/>
</svg>
