<svg width="13" height="16" viewBox="0 0 13 16" fill="none" xmlns="http://www.w3.org/2000/svg">
<path d="M1.18747 12.7913C1.34488 13.9605 2.31329 14.8765 3.49176 14.9307C4.48339 14.9762 5.49071 15 6.6 15C7.70929 15 8.71661 14.9762 9.70824 14.9307C10.8867 14.8765 11.8551 13.9605 12.0125 12.7913C12.1153 12.0283 12.2 11.2464 12.2 10.45C12.2 9.65369 12.1153 8.87175 12.0125 8.1087C11.8551 6.93954 10.8867 6.02357 9.70824 5.96939C8.71661 5.9238 7.70929 5.90002 6.6 5.90002C5.49071 5.90002 4.48339 5.9238 3.49176 5.96939C2.31329 6.02357 1.34488 6.93954 1.18747 8.1087C1.08473 8.87174 0.999999 9.65369 0.999999 10.45C0.999999 11.2464 1.08473 12.0283 1.18747 12.7913Z" stroke="#AAAAAA" stroke-width="1.5"/>
<path d="M3.45001 5.9V4.15C3.45001 2.4103 4.86032 1 6.60001 1C8.33971 1 9.75001 2.4103 9.75001 4.15V5.9" stroke="#AAAAAA" stroke-width="1.5" stroke-linecap="round" stroke-linejoin="round"/>
<path d="M6.59729 10.45H6.60358" stroke="#AAAAAA" stroke-width="2" stroke-linecap="round" stroke-linejoin="round"/>
</svg>
