<svg width="118" height="107" viewBox="0 0 118 107" fill="none" xmlns="http://www.w3.org/2000/svg">
<path fill-rule="evenodd" clip-rule="evenodd" d="M49.0206 2.47272C52.4949 1.10507 55.824 0.356289 59.8251 0.0506662C61.5432 -0.0792232 64.8876 0.0506662 66.8118 0.325726C74.6536 1.44889 81.6174 4.98647 87.1225 10.6405C92.9793 16.6536 96.3769 24.3324 96.9651 32.8898C97.4765 40.2706 95.369 48.171 91.2309 54.3598C85.1662 63.4398 75.5398 69.1124 64.7292 70H59.2892C54.6478 69.6247 50.3951 68.4333 46.2641 66.3629C43.1717 64.8197 40.5908 63.0089 37.9107 60.5259L37.0707 59.7385L33.5965 58.8984C28.2286 57.5839 24.5864 56.7437 21.6849 56.14L20.9595 55.9873H40.5068C54.19 55.9796 60.2604 55.9567 60.7414 55.8956C64.2691 55.4677 67.0867 53.3513 68.881 49.7907C69.3697 48.8204 69.721 47.9265 69.9729 47.002C70.0875 46.5817 70.202 46.1768 70.2249 46.1003C70.2555 45.9781 69.4613 45.9705 54.251 45.9705C39.0407 45.9705 38.2467 45.9628 38.2848 45.833C38.4452 45.2522 39.0331 42.6698 39.0026 42.6468C38.9873 42.6315 36.8264 42.1655 34.2074 41.6154C32.9409 41.3501 31.3904 41.0262 29.8914 40.7131C28.2815 40.3769 26.7309 40.053 25.6554 39.8275L21.8757 39.0328L41.3085 39.0252C60.1451 39.0183 61.3329 39.0299 62.4339 38.7262C62.5638 38.6903 62.6925 38.6501 62.8489 38.6049C65.9642 37.6958 68.4687 35.1438 69.9424 31.3694C70.2555 30.5671 70.6296 29.314 70.6296 29.0695C70.6296 28.9397 69.8889 28.932 56.4425 28.9168L42.2554 28.8938L42.6524 27.1365C42.8739 26.1738 43.0495 25.3791 43.0419 25.3715C43.0312 25.3661 42.4195 25.2405 38.3991 24.4148C36.687 24.0631 34.3567 23.5845 31.1913 22.9342C28.2134 22.3229 25.5791 21.7804 25.35 21.727C25.014 21.6506 28.954 21.6277 45.7373 21.5971C64.6814 21.5589 66.5903 21.5436 67.0408 21.429C68.9956 20.9323 70.5609 20.0002 72.1262 18.3727C73.2487 17.2114 74.1726 15.8743 75.0125 14.2086C75.4095 13.414 75.9746 12.0922 75.9746 11.9547C75.9746 11.9241 66.9034 11.8859 55.8087 11.8783L35.6429 11.8553L36.6126 10.8468C38.8346 8.52406 41.6369 6.30828 44.3247 4.74962C45.5845 4.01612 47.6844 2.99992 49.0206 2.47272Z" fill="white"/>
<path d="M16.9336 105.37C16.0156 105.673 15.0244 105.922 13.96 106.117C12.8955 106.322 11.7871 106.425 10.6348 106.425C9.375 106.425 8.17383 106.259 7.03125 105.927C5.88867 105.595 4.88281 105.077 4.01367 104.374C3.14453 103.671 2.45117 102.782 1.93359 101.708C1.42578 100.624 1.17188 99.335 1.17188 97.8408C1.17188 96.9912 1.30371 96.2051 1.56738 95.4824C1.83105 94.75 2.1875 94.0859 2.63672 93.4902C3.0957 92.8945 3.62793 92.3672 4.2334 91.9082C4.84863 91.4492 5.50293 91.0635 6.19629 90.751C6.89941 90.4385 7.62207 90.2041 8.36426 90.0479C9.10645 89.8818 9.83398 89.7988 10.5469 89.7988C11.6699 89.7988 12.6611 89.9258 13.5205 90.1797C14.3799 90.4238 15.0928 90.7559 15.6592 91.1758C16.2354 91.5957 16.6699 92.084 16.9629 92.6406C17.2559 93.1973 17.4023 93.7881 17.4023 94.4131C17.4023 95.1748 17.2705 95.8242 17.0068 96.3613C16.7529 96.8984 16.4062 97.3525 15.9668 97.7236C15.5371 98.085 15.0342 98.373 14.458 98.5879C13.8916 98.793 13.291 98.9541 12.6562 99.0713C12.0215 99.1787 11.3721 99.2471 10.708 99.2764C10.0537 99.3057 9.42871 99.3203 8.83301 99.3203C8.62793 99.3203 8.42773 99.3203 8.23242 99.3203C8.04688 99.3105 7.86133 99.3057 7.67578 99.3057C7.75391 99.8623 7.90527 100.331 8.12988 100.712C8.36426 101.093 8.65234 101.405 8.99414 101.649C9.3457 101.884 9.74609 102.055 10.1953 102.162C10.6543 102.26 11.1426 102.309 11.6602 102.309C12.0508 102.309 12.4658 102.279 12.9053 102.221C13.3545 102.162 13.8037 102.084 14.2529 101.986C14.7119 101.879 15.166 101.762 15.6152 101.635C16.0742 101.498 16.5137 101.356 16.9336 101.21V105.37ZM7.54395 97.0498C7.77832 97.04 8.07617 97.0254 8.4375 97.0059C8.80859 96.9863 9.19922 96.9521 9.60938 96.9033C10.0195 96.8545 10.4297 96.7861 10.8398 96.6982C11.25 96.6104 11.6211 96.498 11.9531 96.3613C12.2852 96.2246 12.5537 96.0537 12.7588 95.8486C12.9639 95.6436 13.0664 95.3945 13.0664 95.1016C13.0664 94.6035 12.8662 94.208 12.4658 93.915C12.0752 93.6123 11.5283 93.4609 10.8252 93.4609C10.5029 93.4609 10.1562 93.5098 9.78516 93.6074C9.41406 93.6953 9.06738 93.8711 8.74512 94.1348C8.42285 94.3984 8.14941 94.7646 7.9248 95.2334C7.7002 95.7021 7.57324 96.3076 7.54395 97.0498ZM19.4385 90.1943H26.543L29.2822 102.03L32.3438 90.1943H37.7197L32.666 106H24.6533L19.4385 90.1943ZM44.2383 106.425C43.6133 106.425 43.0127 106.337 42.4365 106.161C41.8701 105.985 41.3672 105.717 40.9277 105.355C40.4883 104.994 40.1367 104.54 39.873 103.993C39.6191 103.437 39.4922 102.782 39.4922 102.03C39.4922 101.308 39.6094 100.683 39.8438 100.155C40.0781 99.6182 40.3906 99.1592 40.7812 98.7783C41.1816 98.3975 41.6455 98.085 42.1729 97.8408C42.71 97.5869 43.2764 97.3916 43.8721 97.2549C44.4678 97.1084 45.0781 97.0107 45.7031 96.9619C46.3379 96.9033 46.9531 96.874 47.5488 96.874C47.959 96.874 48.3545 96.8838 48.7354 96.9033C49.1162 96.9229 49.4727 96.9473 49.8047 96.9766C49.7852 96.3613 49.668 95.8535 49.4531 95.4531C49.2383 95.043 48.9551 94.7207 48.6035 94.4863C48.252 94.2422 47.8418 94.0713 47.373 93.9736C46.9043 93.876 46.4111 93.8271 45.8936 93.8271C45.415 93.8271 44.9219 93.8613 44.4141 93.9297C43.916 93.9883 43.4277 94.0664 42.9492 94.1641C42.4707 94.252 42.0117 94.3496 41.5723 94.457C41.1426 94.5645 40.7617 94.6621 40.4297 94.75V90.6484C40.9082 90.541 41.4209 90.4385 41.9678 90.3408C42.5244 90.2334 43.1006 90.1406 43.6963 90.0625C44.292 89.9844 44.8975 89.9209 45.5127 89.8721C46.1377 89.8232 46.7529 89.7988 47.3584 89.7988C48.1104 89.7988 48.8477 89.8477 49.5703 89.9453C50.3027 90.0332 50.9912 90.1846 51.6357 90.3994C52.29 90.6143 52.8906 90.9023 53.4375 91.2637C53.9941 91.625 54.4678 92.0742 54.8584 92.6113C55.2588 93.1387 55.5713 93.7637 55.7959 94.4863C56.0205 95.209 56.1328 96.0439 56.1328 96.9912V106H50.0977V103.378C49.8633 103.856 49.5361 104.286 49.1162 104.667C48.6963 105.038 48.2227 105.355 47.6953 105.619C47.168 105.883 46.6064 106.083 46.0107 106.22C45.415 106.356 44.8242 106.425 44.2383 106.425ZM46.7139 102.982C46.9873 102.982 47.2998 102.909 47.6514 102.763C48.0127 102.606 48.3496 102.372 48.6621 102.06C48.9844 101.747 49.2529 101.352 49.4678 100.873C49.6924 100.395 49.8047 99.8232 49.8047 99.1592H49.3213C48.8525 99.1592 48.3691 99.208 47.8711 99.3057C47.3828 99.4033 46.9336 99.5498 46.5234 99.7451C46.1133 99.9404 45.7764 100.18 45.5127 100.463C45.249 100.746 45.1172 101.073 45.1172 101.444C45.1172 101.737 45.166 101.981 45.2637 102.177C45.3613 102.372 45.4834 102.533 45.6299 102.66C45.7861 102.777 45.957 102.86 46.1426 102.909C46.3379 102.958 46.5283 102.982 46.7139 102.982ZM60.3809 90.1943H66.709C66.6504 90.5264 66.5918 90.9561 66.5332 91.4834C66.4746 92.001 66.4453 92.5381 66.4453 93.0947C66.7773 92.5967 67.1924 92.1475 67.6904 91.7471C68.1982 91.3369 68.7549 90.9902 69.3604 90.707C69.9658 90.4141 70.6055 90.1895 71.2793 90.0332C71.9629 89.877 72.6514 89.7988 73.3447 89.7988C74.1064 89.7988 74.8291 89.916 75.5127 90.1504C76.1963 90.375 76.7969 90.7363 77.3145 91.2344C77.832 91.7324 78.2422 92.3818 78.5449 93.1826C78.8477 93.9736 78.999 94.9355 78.999 96.0684V106H72.6709V96.9912C72.6709 96.3857 72.6074 95.8828 72.4805 95.4824C72.3535 95.082 72.1777 94.7646 71.9531 94.5303C71.7285 94.2959 71.46 94.1299 71.1475 94.0322C70.8447 93.9346 70.5127 93.8857 70.1514 93.8857C69.7607 93.8857 69.375 93.9541 68.9941 94.0908C68.6133 94.2178 68.2666 94.3936 67.9541 94.6182C67.6416 94.8428 67.373 95.1064 67.1484 95.4092C66.9238 95.7119 66.7773 96.0342 66.709 96.376V106H60.3809V90.1943ZM91.2744 106.425C90.3662 106.425 89.4971 106.312 88.667 106.088C87.8369 105.873 87.1045 105.507 86.4697 104.989C85.8447 104.462 85.3418 103.769 84.9609 102.909C84.5898 102.04 84.4043 100.961 84.4043 99.6719V93.8271H81.4893V92.875L88.3887 85.375H90.7324V90.1943H95.4199C95.3027 90.7803 95.1953 91.3711 95.0977 91.9668C95.0098 92.5625 94.9609 93.1826 94.9512 93.8271H90.7324V99.6133C90.7324 99.9648 90.7568 100.307 90.8057 100.639C90.8643 100.961 90.9766 101.249 91.1426 101.503C91.3086 101.747 91.5479 101.947 91.8604 102.104C92.1729 102.25 92.5879 102.323 93.1055 102.323C93.4375 102.323 93.8037 102.294 94.2041 102.235C94.6045 102.167 95.0586 102.045 95.5664 101.869L95.918 105.663C95.3027 105.888 94.5947 106.068 93.7939 106.205C93.0029 106.352 92.1631 106.425 91.2744 106.425ZM106.875 106.425C105.723 106.425 104.697 106.317 103.799 106.103C102.9 105.888 102.114 105.59 101.44 105.209C100.767 104.828 100.19 104.379 99.7119 103.861C99.2432 103.334 98.8623 102.763 98.5693 102.147C98.2764 101.532 98.0615 100.883 97.9248 100.199C97.7979 99.5156 97.7344 98.8223 97.7344 98.1191C97.7344 97.4258 97.7979 96.7422 97.9248 96.0684C98.0615 95.3848 98.2764 94.7354 98.5693 94.1201C98.8623 93.4951 99.2432 92.9238 99.7119 92.4062C100.181 91.8789 100.752 91.4248 101.426 91.0439C102.109 90.6533 102.9 90.3506 103.799 90.1357C104.697 89.9111 105.723 89.7988 106.875 89.7988C108.027 89.7988 109.053 89.9111 109.951 90.1357C110.85 90.3506 111.636 90.6533 112.31 91.0439C112.993 91.4248 113.569 91.8789 114.038 92.4062C114.507 92.9238 114.888 93.4951 115.181 94.1201C115.474 94.7354 115.684 95.3848 115.811 96.0684C115.947 96.7422 116.016 97.4258 116.016 98.1191C116.016 98.8223 115.947 99.5156 115.811 100.199C115.684 100.883 115.474 101.532 115.181 102.147C114.888 102.763 114.502 103.334 114.023 103.861C113.555 104.379 112.983 104.828 112.31 105.209C111.636 105.59 110.85 105.888 109.951 106.103C109.053 106.317 108.027 106.425 106.875 106.425ZM104.062 98.1191C104.062 98.6465 104.111 99.1641 104.209 99.6719C104.307 100.17 104.463 100.619 104.678 101.02C104.902 101.41 105.19 101.728 105.542 101.972C105.903 102.206 106.348 102.323 106.875 102.323C107.402 102.323 107.842 102.206 108.193 101.972C108.555 101.728 108.843 101.41 109.058 101.02C109.282 100.619 109.443 100.17 109.541 99.6719C109.639 99.1641 109.688 98.6465 109.688 98.1191C109.688 97.5918 109.639 97.0791 109.541 96.5811C109.443 96.0732 109.282 95.624 109.058 95.2334C108.843 94.833 108.555 94.5107 108.193 94.2666C107.842 94.0225 107.402 93.9004 106.875 93.9004C106.348 93.9004 105.903 94.0225 105.542 94.2666C105.19 94.5107 104.902 94.833 104.678 95.2334C104.463 95.624 104.307 96.0732 104.209 96.5811C104.111 97.0791 104.062 97.5918 104.062 98.1191Z" fill="white"/>
</svg>
